;TYPE=PLATED
;Layer: PTH_Through
;EasyEDA Pro v2.2.39.2, 2025-06-16 16:20:03
;Gerber Generator version 0.3
M48
METRIC,LZ,0000.00000
;Hole size 1 = 1.00000 METRIC
T01C1.00000
;Hole size 2 = 1.00000 METRIC
T02C1.00000
%
G05
G90
T01
X7.46095Y0.127
X16.16105Y0.127
X2.39954Y-13.44539
X4.93954Y-13.44539
X7.47954Y-13.44539
X10.01954Y-13.44539
X12.55954Y-13.44539
X15.09954Y-13.44539
X17.63954Y-13.44539
X20.17954Y-13.44539
X20.17954Y-5.82539
X17.63954Y-5.82539
X15.09954Y-5.82539
X12.55954Y-5.82539
X10.01954Y-5.82539
X7.47954Y-5.82539
X4.93954Y-5.82539
X2.39954Y-5.82539
T02
X22.479Y-17.399
X2.413Y-17.272
X15.113Y-17.272
X12.573Y-17.272
X10.033Y-17.272
X7.493Y-17.272
X4.953Y-17.272
X26.543Y-16.129
X26.543Y-13.589
X26.543Y-11.049
X26.543Y-8.509
X26.543Y-5.969
X26.543Y-3.429
X-0.254Y0.0
X17.653Y-17.272
X26.543Y-0.762
M30