G04 Layer: TopLayer*
G04 EasyEDA Pro v2.2.39.2, 2025-06-16 16:20:03*
G04 Gerber Generator version 0.3*
G04 Scale: 100 percent, Rotated: No, Reflected: No*
G04 Dimensions in millimeters*
G04 Leading zeros omitted, absolute positions, 4 integers and 5 decimals*
G04 Generated by one-click*
%FSLAX45Y45*%
%MOMM*%
%ADD10C,0.2032*%
%ADD11C,0.254*%
%ADD12C,1.6*%
%ADD13C,1.8*%
%ADD14C,0.6307*%
G75*


G04 Copper Start*
G36*
G01X2796286Y370586D02*
G01X2796286Y-1856486D01*
G01X-205486Y-1856486D01*
G01X-205486Y-1727200D01*
G01X125486Y-1727200D01*
G01X127458Y-1748481D01*
G01X133307Y-1769037D01*
G01X142833Y-1788168D01*
G01X155712Y-1805223D01*
G01X171506Y-1819622D01*
G01X189677Y-1830872D01*
G01X209606Y-1838593D01*
G01X230614Y-1842520D01*
G01X251986Y-1842520D01*
G01X272994Y-1838593D01*
G01X292923Y-1830872D01*
G01X311094Y-1819622D01*
G01X326888Y-1805223D01*
G01X339767Y-1788168D01*
G01X349293Y-1769037D01*
G01X355142Y-1748481D01*
G01X357114Y-1727200D01*
G01X357114Y-1727200D01*
G01X379486Y-1727200D01*
G01X381458Y-1748481D01*
G01X387307Y-1769037D01*
G01X396833Y-1788168D01*
G01X409712Y-1805223D01*
G01X425506Y-1819622D01*
G01X443677Y-1830872D01*
G01X463606Y-1838593D01*
G01X484614Y-1842520D01*
G01X505986Y-1842520D01*
G01X526994Y-1838593D01*
G01X546923Y-1830872D01*
G01X565094Y-1819622D01*
G01X580888Y-1805223D01*
G01X593767Y-1788168D01*
G01X603293Y-1769037D01*
G01X609142Y-1748481D01*
G01X611114Y-1727200D01*
G01X611114Y-1727200D01*
G01X633486Y-1727200D01*
G01X635458Y-1748481D01*
G01X641307Y-1769037D01*
G01X650833Y-1788168D01*
G01X663712Y-1805223D01*
G01X679506Y-1819622D01*
G01X697677Y-1830872D01*
G01X717606Y-1838593D01*
G01X738614Y-1842520D01*
G01X759986Y-1842520D01*
G01X780994Y-1838593D01*
G01X800923Y-1830872D01*
G01X819094Y-1819622D01*
G01X834888Y-1805223D01*
G01X847767Y-1788168D01*
G01X857293Y-1769037D01*
G01X863142Y-1748481D01*
G01X865114Y-1727200D01*
G01X865114Y-1727200D01*
G01X887486Y-1727200D01*
G01X889458Y-1748481D01*
G01X895307Y-1769037D01*
G01X904833Y-1788168D01*
G01X917712Y-1805223D01*
G01X933506Y-1819622D01*
G01X951677Y-1830872D01*
G01X971606Y-1838593D01*
G01X992614Y-1842520D01*
G01X1013986Y-1842520D01*
G01X1034994Y-1838593D01*
G01X1054923Y-1830872D01*
G01X1073094Y-1819622D01*
G01X1088888Y-1805223D01*
G01X1101767Y-1788168D01*
G01X1111293Y-1769037D01*
G01X1117142Y-1748481D01*
G01X1119114Y-1727200D01*
G01X1119114Y-1727200D01*
G01X1141486Y-1727200D01*
G01X1143458Y-1748481D01*
G01X1149307Y-1769037D01*
G01X1158833Y-1788168D01*
G01X1171712Y-1805223D01*
G01X1187506Y-1819622D01*
G01X1205677Y-1830872D01*
G01X1225606Y-1838593D01*
G01X1246614Y-1842520D01*
G01X1267986Y-1842520D01*
G01X1288994Y-1838593D01*
G01X1308923Y-1830872D01*
G01X1327094Y-1819622D01*
G01X1342888Y-1805223D01*
G01X1355767Y-1788168D01*
G01X1365293Y-1769037D01*
G01X1371142Y-1748481D01*
G01X1373114Y-1727200D01*
G01X1373114Y-1727200D01*
G01X1395486Y-1727200D01*
G01X1397458Y-1748481D01*
G01X1403307Y-1769037D01*
G01X1412833Y-1788168D01*
G01X1425712Y-1805223D01*
G01X1441506Y-1819622D01*
G01X1459677Y-1830872D01*
G01X1479606Y-1838593D01*
G01X1500614Y-1842520D01*
G01X1521986Y-1842520D01*
G01X1542994Y-1838593D01*
G01X1562923Y-1830872D01*
G01X1581094Y-1819622D01*
G01X1596888Y-1805223D01*
G01X1609767Y-1788168D01*
G01X1619293Y-1769037D01*
G01X1625142Y-1748481D01*
G01X1627114Y-1727200D01*
G01X1627114Y-1727200D01*
G01X1649486Y-1727200D01*
G01X1651458Y-1748481D01*
G01X1657307Y-1769037D01*
G01X1666833Y-1788168D01*
G01X1679712Y-1805223D01*
G01X1695506Y-1819622D01*
G01X1713677Y-1830872D01*
G01X1733606Y-1838593D01*
G01X1754614Y-1842520D01*
G01X1775986Y-1842520D01*
G01X1796994Y-1838593D01*
G01X1816923Y-1830872D01*
G01X1835094Y-1819622D01*
G01X1850888Y-1805223D01*
G01X1863767Y-1788168D01*
G01X1873293Y-1769037D01*
G01X1879142Y-1748481D01*
G01X1879937Y-1739900D01*
G01X2132086Y-1739900D01*
G01X2134058Y-1761181D01*
G01X2139907Y-1781737D01*
G01X2149433Y-1800868D01*
G01X2162312Y-1817923D01*
G01X2178106Y-1832322D01*
G01X2196277Y-1843572D01*
G01X2216206Y-1851293D01*
G01X2237214Y-1855220D01*
G01X2258586Y-1855220D01*
G01X2279594Y-1851293D01*
G01X2299523Y-1843572D01*
G01X2317694Y-1832322D01*
G01X2333488Y-1817923D01*
G01X2346367Y-1800868D01*
G01X2355893Y-1781737D01*
G01X2361742Y-1761181D01*
G01X2363714Y-1739900D01*
G01X2361742Y-1718619D01*
G01X2355893Y-1698063D01*
G01X2346367Y-1678932D01*
G01X2333488Y-1661877D01*
G01X2317694Y-1647478D01*
G01X2299523Y-1636228D01*
G01X2279594Y-1628507D01*
G01X2258586Y-1624580D01*
G01X2237214Y-1624580D01*
G01X2216206Y-1628507D01*
G01X2196277Y-1636228D01*
G01X2178106Y-1647478D01*
G01X2162312Y-1661877D01*
G01X2149433Y-1678932D01*
G01X2139907Y-1698063D01*
G01X2134058Y-1718619D01*
G01X2132086Y-1739900D01*
G01X2132086Y-1739900D01*
G01X1879937Y-1739900D01*
G01X1881114Y-1727200D01*
G01X1879142Y-1705919D01*
G01X1873293Y-1685363D01*
G01X1863767Y-1666232D01*
G01X1850888Y-1649177D01*
G01X1835094Y-1634778D01*
G01X1816923Y-1623528D01*
G01X1796994Y-1615807D01*
G01X1775986Y-1611880D01*
G01X1754614Y-1611880D01*
G01X1733606Y-1615807D01*
G01X1713677Y-1623528D01*
G01X1695506Y-1634778D01*
G01X1679712Y-1649177D01*
G01X1666833Y-1666232D01*
G01X1657307Y-1685363D01*
G01X1651458Y-1705919D01*
G01X1649486Y-1727200D01*
G01X1649486Y-1727200D01*
G01X1627114Y-1727200D01*
G01X1625142Y-1705919D01*
G01X1619293Y-1685363D01*
G01X1609767Y-1666232D01*
G01X1596888Y-1649177D01*
G01X1581094Y-1634778D01*
G01X1562923Y-1623528D01*
G01X1542994Y-1615807D01*
G01X1521986Y-1611880D01*
G01X1500614Y-1611880D01*
G01X1479606Y-1615807D01*
G01X1459677Y-1623528D01*
G01X1441506Y-1634778D01*
G01X1425712Y-1649177D01*
G01X1412833Y-1666232D01*
G01X1403307Y-1685363D01*
G01X1397458Y-1705919D01*
G01X1395486Y-1727200D01*
G01X1395486Y-1727200D01*
G01X1373114Y-1727200D01*
G01X1371142Y-1705919D01*
G01X1365293Y-1685363D01*
G01X1355767Y-1666232D01*
G01X1342888Y-1649177D01*
G01X1327094Y-1634778D01*
G01X1308923Y-1623528D01*
G01X1288994Y-1615807D01*
G01X1267986Y-1611880D01*
G01X1246614Y-1611880D01*
G01X1225606Y-1615807D01*
G01X1205677Y-1623528D01*
G01X1187506Y-1634778D01*
G01X1171712Y-1649177D01*
G01X1158833Y-1666232D01*
G01X1149307Y-1685363D01*
G01X1143458Y-1705919D01*
G01X1141486Y-1727200D01*
G01X1141486Y-1727200D01*
G01X1119114Y-1727200D01*
G01X1117142Y-1705919D01*
G01X1111293Y-1685363D01*
G01X1101767Y-1666232D01*
G01X1088888Y-1649177D01*
G01X1073094Y-1634778D01*
G01X1054923Y-1623528D01*
G01X1034994Y-1615807D01*
G01X1013986Y-1611880D01*
G01X992614Y-1611880D01*
G01X971606Y-1615807D01*
G01X951677Y-1623528D01*
G01X933506Y-1634778D01*
G01X917712Y-1649177D01*
G01X904833Y-1666232D01*
G01X895307Y-1685363D01*
G01X889458Y-1705919D01*
G01X887486Y-1727200D01*
G01X887486Y-1727200D01*
G01X865114Y-1727200D01*
G01X863142Y-1705919D01*
G01X857293Y-1685363D01*
G01X847767Y-1666232D01*
G01X834888Y-1649177D01*
G01X819094Y-1634778D01*
G01X800923Y-1623528D01*
G01X780994Y-1615807D01*
G01X759986Y-1611880D01*
G01X738614Y-1611880D01*
G01X717606Y-1615807D01*
G01X697677Y-1623528D01*
G01X679506Y-1634778D01*
G01X663712Y-1649177D01*
G01X650833Y-1666232D01*
G01X641307Y-1685363D01*
G01X635458Y-1705919D01*
G01X633486Y-1727200D01*
G01X633486Y-1727200D01*
G01X611114Y-1727200D01*
G01X609142Y-1705919D01*
G01X603293Y-1685363D01*
G01X593767Y-1666232D01*
G01X580888Y-1649177D01*
G01X565094Y-1634778D01*
G01X546923Y-1623528D01*
G01X526994Y-1615807D01*
G01X505986Y-1611880D01*
G01X484614Y-1611880D01*
G01X463606Y-1615807D01*
G01X443677Y-1623528D01*
G01X425506Y-1634778D01*
G01X409712Y-1649177D01*
G01X396833Y-1666232D01*
G01X387307Y-1685363D01*
G01X381458Y-1705919D01*
G01X379486Y-1727200D01*
G01X379486Y-1727200D01*
G01X357114Y-1727200D01*
G01X355142Y-1705919D01*
G01X349293Y-1685363D01*
G01X339767Y-1666232D01*
G01X326888Y-1649177D01*
G01X311094Y-1634778D01*
G01X292923Y-1623528D01*
G01X272994Y-1615807D01*
G01X251986Y-1611880D01*
G01X230614Y-1611880D01*
G01X209606Y-1615807D01*
G01X189677Y-1623528D01*
G01X171506Y-1634778D01*
G01X155712Y-1649177D01*
G01X142833Y-1666232D01*
G01X133307Y-1685363D01*
G01X127458Y-1705919D01*
G01X125486Y-1727200D01*
G01X125486Y-1727200D01*
G01X-205486Y-1727200D01*
G01X-205486Y-1602214D01*
G01X2538980Y-1602214D01*
G01X2538980Y-1623586D01*
G01X2542907Y-1644594D01*
G01X2550628Y-1664523D01*
G01X2561878Y-1682694D01*
G01X2576277Y-1698488D01*
G01X2593332Y-1711367D01*
G01X2612463Y-1720893D01*
G01X2633019Y-1726742D01*
G01X2654300Y-1728714D01*
G01X2654300Y-1728714D01*
G01X2675581Y-1726742D01*
G01X2696137Y-1720893D01*
G01X2715268Y-1711367D01*
G01X2732323Y-1698488D01*
G01X2746722Y-1682694D01*
G01X2757972Y-1664523D01*
G01X2765693Y-1644594D01*
G01X2769620Y-1623586D01*
G01X2769620Y-1602214D01*
G01X2765693Y-1581206D01*
G01X2757972Y-1561277D01*
G01X2746722Y-1543106D01*
G01X2732323Y-1527312D01*
G01X2715268Y-1514433D01*
G01X2696137Y-1504907D01*
G01X2675581Y-1499058D01*
G01X2654300Y-1497086D01*
G01X2633019Y-1499058D01*
G01X2612463Y-1504907D01*
G01X2593332Y-1514433D01*
G01X2576277Y-1527312D01*
G01X2561878Y-1543106D01*
G01X2550628Y-1561277D01*
G01X2542907Y-1581206D01*
G01X2538980Y-1602214D01*
G01X-205486Y-1602214D01*
G01X-205486Y-1333853D01*
G01X124634Y-1333853D01*
G01X124634Y-1355225D01*
G01X128561Y-1376233D01*
G01X136282Y-1396162D01*
G01X147532Y-1414332D01*
G01X161931Y-1430126D01*
G01X178986Y-1443006D01*
G01X198117Y-1452532D01*
G01X218673Y-1458381D01*
G01X239954Y-1460353D01*
G01X239954Y-1460353D01*
G01X261235Y-1458381D01*
G01X281791Y-1452532D01*
G01X300922Y-1443006D01*
G01X317977Y-1430126D01*
G01X332375Y-1414332D01*
G01X343626Y-1396162D01*
G01X351347Y-1376233D01*
G01X355274Y-1355225D01*
G01X355274Y-1333853D01*
G01X355274Y-1333853D01*
G01X378634Y-1333853D01*
G01X378634Y-1355225D01*
G01X382561Y-1376233D01*
G01X390282Y-1396162D01*
G01X401532Y-1414332D01*
G01X415931Y-1430126D01*
G01X432986Y-1443006D01*
G01X452117Y-1452532D01*
G01X472673Y-1458381D01*
G01X493954Y-1460353D01*
G01X493954Y-1460353D01*
G01X515235Y-1458381D01*
G01X535791Y-1452532D01*
G01X554922Y-1443006D01*
G01X571977Y-1430126D01*
G01X586375Y-1414332D01*
G01X597626Y-1396162D01*
G01X605347Y-1376233D01*
G01X609274Y-1355225D01*
G01X609274Y-1333853D01*
G01X609274Y-1333853D01*
G01X632634Y-1333853D01*
G01X632634Y-1355225D01*
G01X636561Y-1376233D01*
G01X644282Y-1396162D01*
G01X655532Y-1414332D01*
G01X669931Y-1430126D01*
G01X686986Y-1443006D01*
G01X706117Y-1452532D01*
G01X726673Y-1458381D01*
G01X747954Y-1460353D01*
G01X747954Y-1460353D01*
G01X769235Y-1458381D01*
G01X789791Y-1452532D01*
G01X808922Y-1443006D01*
G01X825977Y-1430126D01*
G01X840375Y-1414332D01*
G01X851626Y-1396162D01*
G01X859347Y-1376233D01*
G01X863274Y-1355225D01*
G01X863274Y-1333853D01*
G01X863274Y-1333853D01*
G01X886634Y-1333853D01*
G01X886634Y-1355225D01*
G01X890561Y-1376233D01*
G01X898282Y-1396162D01*
G01X909532Y-1414332D01*
G01X923931Y-1430126D01*
G01X940986Y-1443006D01*
G01X960117Y-1452532D01*
G01X980673Y-1458381D01*
G01X1001954Y-1460353D01*
G01X1001954Y-1460353D01*
G01X1023235Y-1458381D01*
G01X1043791Y-1452532D01*
G01X1062922Y-1443006D01*
G01X1079977Y-1430126D01*
G01X1094375Y-1414332D01*
G01X1105626Y-1396162D01*
G01X1113347Y-1376233D01*
G01X1117274Y-1355225D01*
G01X1117274Y-1333853D01*
G01X1117274Y-1333853D01*
G01X1140634Y-1333853D01*
G01X1140634Y-1355225D01*
G01X1144561Y-1376233D01*
G01X1152282Y-1396162D01*
G01X1163532Y-1414332D01*
G01X1177931Y-1430126D01*
G01X1194986Y-1443006D01*
G01X1214117Y-1452532D01*
G01X1234673Y-1458381D01*
G01X1255954Y-1460353D01*
G01X1255954Y-1460353D01*
G01X1277235Y-1458381D01*
G01X1297791Y-1452532D01*
G01X1316922Y-1443006D01*
G01X1333977Y-1430126D01*
G01X1348375Y-1414332D01*
G01X1359626Y-1396162D01*
G01X1367347Y-1376233D01*
G01X1371274Y-1355225D01*
G01X1371274Y-1333853D01*
G01X1371274Y-1333853D01*
G01X1394634Y-1333853D01*
G01X1394634Y-1355225D01*
G01X1398561Y-1376233D01*
G01X1406282Y-1396162D01*
G01X1417532Y-1414332D01*
G01X1431931Y-1430126D01*
G01X1448986Y-1443006D01*
G01X1468117Y-1452532D01*
G01X1488673Y-1458381D01*
G01X1509954Y-1460353D01*
G01X1509954Y-1460353D01*
G01X1531235Y-1458381D01*
G01X1551791Y-1452532D01*
G01X1570922Y-1443006D01*
G01X1587977Y-1430126D01*
G01X1602375Y-1414332D01*
G01X1613626Y-1396162D01*
G01X1621347Y-1376233D01*
G01X1625274Y-1355225D01*
G01X1625274Y-1333853D01*
G01X1625274Y-1333853D01*
G01X1648634Y-1333853D01*
G01X1648634Y-1355225D01*
G01X1652561Y-1376233D01*
G01X1660282Y-1396162D01*
G01X1671532Y-1414332D01*
G01X1685931Y-1430126D01*
G01X1702986Y-1443006D01*
G01X1722117Y-1452532D01*
G01X1742673Y-1458381D01*
G01X1763954Y-1460353D01*
G01X1763954Y-1460353D01*
G01X1785235Y-1458381D01*
G01X1805791Y-1452532D01*
G01X1824922Y-1443006D01*
G01X1841977Y-1430126D01*
G01X1856375Y-1414332D01*
G01X1867626Y-1396162D01*
G01X1875347Y-1376233D01*
G01X1879274Y-1355225D01*
G01X1879274Y-1333853D01*
G01X1879274Y-1333853D01*
G01X1902634Y-1333853D01*
G01X1902634Y-1355225D01*
G01X1906561Y-1376233D01*
G01X1914282Y-1396162D01*
G01X1925532Y-1414332D01*
G01X1939931Y-1430126D01*
G01X1956986Y-1443006D01*
G01X1976117Y-1452532D01*
G01X1996673Y-1458381D01*
G01X2017954Y-1460353D01*
G01X2017954Y-1460353D01*
G01X2039235Y-1458381D01*
G01X2059791Y-1452532D01*
G01X2078922Y-1443006D01*
G01X2095977Y-1430126D01*
G01X2110375Y-1414332D01*
G01X2121626Y-1396162D01*
G01X2129347Y-1376233D01*
G01X2133274Y-1355225D01*
G01X2133274Y-1348214D01*
G01X2538980Y-1348214D01*
G01X2538980Y-1369586D01*
G01X2542907Y-1390594D01*
G01X2550628Y-1410523D01*
G01X2561878Y-1428694D01*
G01X2576277Y-1444488D01*
G01X2593332Y-1457367D01*
G01X2612463Y-1466893D01*
G01X2633019Y-1472742D01*
G01X2654300Y-1474714D01*
G01X2654300Y-1474714D01*
G01X2675581Y-1472742D01*
G01X2696137Y-1466893D01*
G01X2715268Y-1457367D01*
G01X2732323Y-1444488D01*
G01X2746722Y-1428694D01*
G01X2757972Y-1410523D01*
G01X2765693Y-1390594D01*
G01X2769620Y-1369586D01*
G01X2769620Y-1348214D01*
G01X2765693Y-1327206D01*
G01X2757972Y-1307277D01*
G01X2746722Y-1289106D01*
G01X2732323Y-1273312D01*
G01X2715268Y-1260433D01*
G01X2696137Y-1250907D01*
G01X2675581Y-1245058D01*
G01X2654300Y-1243086D01*
G01X2633019Y-1245058D01*
G01X2612463Y-1250907D01*
G01X2593332Y-1260433D01*
G01X2576277Y-1273312D01*
G01X2561878Y-1289106D01*
G01X2550628Y-1307277D01*
G01X2542907Y-1327206D01*
G01X2538980Y-1348214D01*
G01X2133274Y-1348214D01*
G01X2133274Y-1333853D01*
G01X2129347Y-1312845D01*
G01X2121626Y-1292916D01*
G01X2110375Y-1274745D01*
G01X2095977Y-1258951D01*
G01X2078922Y-1246072D01*
G01X2059791Y-1236546D01*
G01X2039235Y-1230697D01*
G01X2017954Y-1228725D01*
G01X1996673Y-1230697D01*
G01X1976117Y-1236546D01*
G01X1956986Y-1246072D01*
G01X1939931Y-1258951D01*
G01X1925532Y-1274745D01*
G01X1914282Y-1292916D01*
G01X1906561Y-1312845D01*
G01X1902634Y-1333853D01*
G01X1879274Y-1333853D01*
G01X1875347Y-1312845D01*
G01X1867626Y-1292916D01*
G01X1856375Y-1274745D01*
G01X1841977Y-1258951D01*
G01X1824922Y-1246072D01*
G01X1805791Y-1236546D01*
G01X1785235Y-1230697D01*
G01X1763954Y-1228725D01*
G01X1742673Y-1230697D01*
G01X1722117Y-1236546D01*
G01X1702986Y-1246072D01*
G01X1685931Y-1258951D01*
G01X1671532Y-1274745D01*
G01X1660282Y-1292916D01*
G01X1652561Y-1312845D01*
G01X1648634Y-1333853D01*
G01X1625274Y-1333853D01*
G01X1621347Y-1312845D01*
G01X1613626Y-1292916D01*
G01X1602375Y-1274745D01*
G01X1587977Y-1258951D01*
G01X1570922Y-1246072D01*
G01X1551791Y-1236546D01*
G01X1531235Y-1230697D01*
G01X1509954Y-1228725D01*
G01X1488673Y-1230697D01*
G01X1468117Y-1236546D01*
G01X1448986Y-1246072D01*
G01X1431931Y-1258951D01*
G01X1417532Y-1274745D01*
G01X1406282Y-1292916D01*
G01X1398561Y-1312845D01*
G01X1394634Y-1333853D01*
G01X1371274Y-1333853D01*
G01X1367347Y-1312845D01*
G01X1359626Y-1292916D01*
G01X1348375Y-1274745D01*
G01X1333977Y-1258951D01*
G01X1316922Y-1246072D01*
G01X1297791Y-1236546D01*
G01X1277235Y-1230697D01*
G01X1255954Y-1228725D01*
G01X1234673Y-1230697D01*
G01X1214117Y-1236546D01*
G01X1194986Y-1246072D01*
G01X1177931Y-1258951D01*
G01X1163532Y-1274745D01*
G01X1152282Y-1292916D01*
G01X1144561Y-1312845D01*
G01X1140634Y-1333853D01*
G01X1117274Y-1333853D01*
G01X1113347Y-1312845D01*
G01X1105626Y-1292916D01*
G01X1094375Y-1274745D01*
G01X1079977Y-1258951D01*
G01X1062922Y-1246072D01*
G01X1043791Y-1236546D01*
G01X1023235Y-1230697D01*
G01X1001954Y-1228725D01*
G01X980673Y-1230697D01*
G01X960117Y-1236546D01*
G01X940986Y-1246072D01*
G01X923931Y-1258951D01*
G01X909532Y-1274745D01*
G01X898282Y-1292916D01*
G01X890561Y-1312845D01*
G01X886634Y-1333853D01*
G01X863274Y-1333853D01*
G01X859347Y-1312845D01*
G01X851626Y-1292916D01*
G01X840375Y-1274745D01*
G01X825977Y-1258951D01*
G01X808922Y-1246072D01*
G01X789791Y-1236546D01*
G01X769235Y-1230697D01*
G01X747954Y-1228725D01*
G01X726673Y-1230697D01*
G01X706117Y-1236546D01*
G01X686986Y-1246072D01*
G01X669931Y-1258951D01*
G01X655532Y-1274745D01*
G01X644282Y-1292916D01*
G01X636561Y-1312845D01*
G01X632634Y-1333853D01*
G01X609274Y-1333853D01*
G01X605347Y-1312845D01*
G01X597626Y-1292916D01*
G01X586375Y-1274745D01*
G01X571977Y-1258951D01*
G01X554922Y-1246072D01*
G01X535791Y-1236546D01*
G01X515235Y-1230697D01*
G01X493954Y-1228725D01*
G01X472673Y-1230697D01*
G01X452117Y-1236546D01*
G01X432986Y-1246072D01*
G01X415931Y-1258951D01*
G01X401532Y-1274745D01*
G01X390282Y-1292916D01*
G01X382561Y-1312845D01*
G01X378634Y-1333853D01*
G01X355274Y-1333853D01*
G01X351347Y-1312845D01*
G01X343626Y-1292916D01*
G01X332375Y-1274745D01*
G01X317977Y-1258951D01*
G01X300922Y-1246072D01*
G01X281791Y-1236546D01*
G01X261235Y-1230697D01*
G01X239954Y-1228725D01*
G01X218673Y-1230697D01*
G01X198117Y-1236546D01*
G01X178986Y-1246072D01*
G01X161931Y-1258951D01*
G01X147532Y-1274745D01*
G01X136282Y-1292916D01*
G01X128561Y-1312845D01*
G01X124634Y-1333853D01*
G01X-205486Y-1333853D01*
G01X-205486Y-1094214D01*
G01X2538980Y-1094214D01*
G01X2538980Y-1115586D01*
G01X2542907Y-1136594D01*
G01X2550628Y-1156523D01*
G01X2561878Y-1174694D01*
G01X2576277Y-1190488D01*
G01X2593332Y-1203367D01*
G01X2612463Y-1212893D01*
G01X2633019Y-1218742D01*
G01X2654300Y-1220714D01*
G01X2654300Y-1220714D01*
G01X2675581Y-1218742D01*
G01X2696137Y-1212893D01*
G01X2715268Y-1203367D01*
G01X2732323Y-1190488D01*
G01X2746722Y-1174694D01*
G01X2757972Y-1156523D01*
G01X2765693Y-1136594D01*
G01X2769620Y-1115586D01*
G01X2769620Y-1094214D01*
G01X2765693Y-1073206D01*
G01X2757972Y-1053277D01*
G01X2746722Y-1035106D01*
G01X2732323Y-1019312D01*
G01X2715268Y-1006433D01*
G01X2696137Y-996907D01*
G01X2675581Y-991058D01*
G01X2654300Y-989086D01*
G01X2633019Y-991058D01*
G01X2612463Y-996907D01*
G01X2593332Y-1006433D01*
G01X2576277Y-1019312D01*
G01X2561878Y-1035106D01*
G01X2550628Y-1053277D01*
G01X2542907Y-1073206D01*
G01X2538980Y-1094214D01*
G01X-205486Y-1094214D01*
G01X-205486Y-840214D01*
G01X2538980Y-840214D01*
G01X2538980Y-861586D01*
G01X2542907Y-882594D01*
G01X2550628Y-902523D01*
G01X2561878Y-920694D01*
G01X2576277Y-936488D01*
G01X2593332Y-949367D01*
G01X2612463Y-958893D01*
G01X2633019Y-964742D01*
G01X2654300Y-966714D01*
G01X2654300Y-966714D01*
G01X2675581Y-964742D01*
G01X2696137Y-958893D01*
G01X2715268Y-949367D01*
G01X2732323Y-936488D01*
G01X2746722Y-920694D01*
G01X2757972Y-902523D01*
G01X2765693Y-882594D01*
G01X2769620Y-861586D01*
G01X2769620Y-840214D01*
G01X2765693Y-819206D01*
G01X2757972Y-799277D01*
G01X2746722Y-781106D01*
G01X2732323Y-765312D01*
G01X2715268Y-752433D01*
G01X2696137Y-742907D01*
G01X2675581Y-737058D01*
G01X2654300Y-735086D01*
G01X2633019Y-737058D01*
G01X2612463Y-742907D01*
G01X2593332Y-752433D01*
G01X2576277Y-765312D01*
G01X2561878Y-781106D01*
G01X2550628Y-799277D01*
G01X2542907Y-819206D01*
G01X2538980Y-840214D01*
G01X-205486Y-840214D01*
G01X-205486Y-571853D01*
G01X124634Y-571853D01*
G01X124634Y-593225D01*
G01X128561Y-614233D01*
G01X136282Y-634162D01*
G01X147532Y-652332D01*
G01X161931Y-668126D01*
G01X178986Y-681006D01*
G01X198117Y-690532D01*
G01X218673Y-696381D01*
G01X239954Y-698353D01*
G01X239954Y-698353D01*
G01X261235Y-696381D01*
G01X281791Y-690532D01*
G01X300922Y-681006D01*
G01X317977Y-668126D01*
G01X332375Y-652332D01*
G01X343626Y-634162D01*
G01X351347Y-614233D01*
G01X355274Y-593225D01*
G01X355274Y-571853D01*
G01X355274Y-571853D01*
G01X378634Y-571853D01*
G01X378634Y-593225D01*
G01X382561Y-614233D01*
G01X390282Y-634162D01*
G01X401532Y-652332D01*
G01X415931Y-668126D01*
G01X432986Y-681006D01*
G01X452117Y-690532D01*
G01X472673Y-696381D01*
G01X493954Y-698353D01*
G01X493954Y-698353D01*
G01X515235Y-696381D01*
G01X535791Y-690532D01*
G01X554922Y-681006D01*
G01X571977Y-668126D01*
G01X586375Y-652332D01*
G01X597626Y-634162D01*
G01X605347Y-614233D01*
G01X609274Y-593225D01*
G01X609274Y-571853D01*
G01X609274Y-571853D01*
G01X632634Y-571853D01*
G01X632634Y-593225D01*
G01X636561Y-614233D01*
G01X644282Y-634162D01*
G01X655532Y-652332D01*
G01X669931Y-668126D01*
G01X686986Y-681006D01*
G01X706117Y-690532D01*
G01X726673Y-696381D01*
G01X747954Y-698353D01*
G01X747954Y-698353D01*
G01X769235Y-696381D01*
G01X789791Y-690532D01*
G01X808922Y-681006D01*
G01X825977Y-668126D01*
G01X840375Y-652332D01*
G01X851626Y-634162D01*
G01X859347Y-614233D01*
G01X863274Y-593225D01*
G01X863274Y-571853D01*
G01X863274Y-571853D01*
G01X886634Y-571853D01*
G01X886634Y-593225D01*
G01X890561Y-614233D01*
G01X898282Y-634162D01*
G01X909532Y-652332D01*
G01X923931Y-668126D01*
G01X940986Y-681006D01*
G01X960117Y-690532D01*
G01X980673Y-696381D01*
G01X1001954Y-698353D01*
G01X1001954Y-698353D01*
G01X1023235Y-696381D01*
G01X1043791Y-690532D01*
G01X1062922Y-681006D01*
G01X1079977Y-668126D01*
G01X1094375Y-652332D01*
G01X1105626Y-634162D01*
G01X1113347Y-614233D01*
G01X1117274Y-593225D01*
G01X1117274Y-571853D01*
G01X1117274Y-571853D01*
G01X1140634Y-571853D01*
G01X1140634Y-593225D01*
G01X1144561Y-614233D01*
G01X1152282Y-634162D01*
G01X1163532Y-652332D01*
G01X1177931Y-668126D01*
G01X1194986Y-681006D01*
G01X1214117Y-690532D01*
G01X1234673Y-696381D01*
G01X1255954Y-698353D01*
G01X1255954Y-698353D01*
G01X1277235Y-696381D01*
G01X1297791Y-690532D01*
G01X1316922Y-681006D01*
G01X1333977Y-668126D01*
G01X1348375Y-652332D01*
G01X1359626Y-634162D01*
G01X1367347Y-614233D01*
G01X1371274Y-593225D01*
G01X1371274Y-571853D01*
G01X1371274Y-571853D01*
G01X1394634Y-571853D01*
G01X1394634Y-593225D01*
G01X1398561Y-614233D01*
G01X1406282Y-634162D01*
G01X1417532Y-652332D01*
G01X1431931Y-668126D01*
G01X1448986Y-681006D01*
G01X1468117Y-690532D01*
G01X1488673Y-696381D01*
G01X1509954Y-698353D01*
G01X1509954Y-698353D01*
G01X1531235Y-696381D01*
G01X1551791Y-690532D01*
G01X1570922Y-681006D01*
G01X1587977Y-668126D01*
G01X1602375Y-652332D01*
G01X1613626Y-634162D01*
G01X1621347Y-614233D01*
G01X1625274Y-593225D01*
G01X1625274Y-571853D01*
G01X1625274Y-571853D01*
G01X1648634Y-571853D01*
G01X1648634Y-593225D01*
G01X1652561Y-614233D01*
G01X1660282Y-634162D01*
G01X1671532Y-652332D01*
G01X1685931Y-668126D01*
G01X1702986Y-681006D01*
G01X1722117Y-690532D01*
G01X1742673Y-696381D01*
G01X1763954Y-698353D01*
G01X1763954Y-698353D01*
G01X1785235Y-696381D01*
G01X1805791Y-690532D01*
G01X1824922Y-681006D01*
G01X1841977Y-668126D01*
G01X1856375Y-652332D01*
G01X1867626Y-634162D01*
G01X1875347Y-614233D01*
G01X1879274Y-593225D01*
G01X1879274Y-571853D01*
G01X1879274Y-571853D01*
G01X1902634Y-571853D01*
G01X1902634Y-593225D01*
G01X1906561Y-614233D01*
G01X1914282Y-634162D01*
G01X1925532Y-652332D01*
G01X1939931Y-668126D01*
G01X1956986Y-681006D01*
G01X1976117Y-690532D01*
G01X1996673Y-696381D01*
G01X2017954Y-698353D01*
G01X2017954Y-698353D01*
G01X2039235Y-696381D01*
G01X2059791Y-690532D01*
G01X2078922Y-681006D01*
G01X2095977Y-668126D01*
G01X2110375Y-652332D01*
G01X2121626Y-634162D01*
G01X2129347Y-614233D01*
G01X2133274Y-593225D01*
G01X2133274Y-586214D01*
G01X2538980Y-586214D01*
G01X2538980Y-607586D01*
G01X2542907Y-628594D01*
G01X2550628Y-648523D01*
G01X2561878Y-666694D01*
G01X2576277Y-682488D01*
G01X2593332Y-695367D01*
G01X2612463Y-704893D01*
G01X2633019Y-710742D01*
G01X2654300Y-712714D01*
G01X2654300Y-712714D01*
G01X2675581Y-710742D01*
G01X2696137Y-704893D01*
G01X2715268Y-695367D01*
G01X2732323Y-682488D01*
G01X2746722Y-666694D01*
G01X2757972Y-648523D01*
G01X2765693Y-628594D01*
G01X2769620Y-607586D01*
G01X2769620Y-586214D01*
G01X2765693Y-565206D01*
G01X2757972Y-545277D01*
G01X2746722Y-527106D01*
G01X2732323Y-511312D01*
G01X2715268Y-498433D01*
G01X2696137Y-488907D01*
G01X2675581Y-483058D01*
G01X2654300Y-481086D01*
G01X2633019Y-483058D01*
G01X2612463Y-488907D01*
G01X2593332Y-498433D01*
G01X2576277Y-511312D01*
G01X2561878Y-527106D01*
G01X2550628Y-545277D01*
G01X2542907Y-565206D01*
G01X2538980Y-586214D01*
G01X2133274Y-586214D01*
G01X2133274Y-571853D01*
G01X2129347Y-550845D01*
G01X2121626Y-530916D01*
G01X2110375Y-512745D01*
G01X2095977Y-496951D01*
G01X2078922Y-484072D01*
G01X2059791Y-474546D01*
G01X2039235Y-468697D01*
G01X2017954Y-466725D01*
G01X1996673Y-468697D01*
G01X1976117Y-474546D01*
G01X1956986Y-484072D01*
G01X1939931Y-496951D01*
G01X1925532Y-512745D01*
G01X1914282Y-530916D01*
G01X1906561Y-550845D01*
G01X1902634Y-571853D01*
G01X1879274Y-571853D01*
G01X1875347Y-550845D01*
G01X1867626Y-530916D01*
G01X1856375Y-512745D01*
G01X1841977Y-496951D01*
G01X1824922Y-484072D01*
G01X1805791Y-474546D01*
G01X1785235Y-468697D01*
G01X1763954Y-466725D01*
G01X1742673Y-468697D01*
G01X1722117Y-474546D01*
G01X1702986Y-484072D01*
G01X1685931Y-496951D01*
G01X1671532Y-512745D01*
G01X1660282Y-530916D01*
G01X1652561Y-550845D01*
G01X1648634Y-571853D01*
G01X1625274Y-571853D01*
G01X1621347Y-550845D01*
G01X1613626Y-530916D01*
G01X1602375Y-512745D01*
G01X1587977Y-496951D01*
G01X1570922Y-484072D01*
G01X1551791Y-474546D01*
G01X1531235Y-468697D01*
G01X1509954Y-466725D01*
G01X1488673Y-468697D01*
G01X1468117Y-474546D01*
G01X1448986Y-484072D01*
G01X1431931Y-496951D01*
G01X1417532Y-512745D01*
G01X1406282Y-530916D01*
G01X1398561Y-550845D01*
G01X1394634Y-571853D01*
G01X1371274Y-571853D01*
G01X1367347Y-550845D01*
G01X1359626Y-530916D01*
G01X1348375Y-512745D01*
G01X1333977Y-496951D01*
G01X1316922Y-484072D01*
G01X1297791Y-474546D01*
G01X1277235Y-468697D01*
G01X1255954Y-466725D01*
G01X1234673Y-468697D01*
G01X1214117Y-474546D01*
G01X1194986Y-484072D01*
G01X1177931Y-496951D01*
G01X1163532Y-512745D01*
G01X1152282Y-530916D01*
G01X1144561Y-550845D01*
G01X1140634Y-571853D01*
G01X1117274Y-571853D01*
G01X1113347Y-550845D01*
G01X1105626Y-530916D01*
G01X1094375Y-512745D01*
G01X1079977Y-496951D01*
G01X1062922Y-484072D01*
G01X1043791Y-474546D01*
G01X1023235Y-468697D01*
G01X1001954Y-466725D01*
G01X980673Y-468697D01*
G01X960117Y-474546D01*
G01X940986Y-484072D01*
G01X923931Y-496951D01*
G01X909532Y-512745D01*
G01X898282Y-530916D01*
G01X890561Y-550845D01*
G01X886634Y-571853D01*
G01X863274Y-571853D01*
G01X859347Y-550845D01*
G01X851626Y-530916D01*
G01X840375Y-512745D01*
G01X825977Y-496951D01*
G01X808922Y-484072D01*
G01X789791Y-474546D01*
G01X769235Y-468697D01*
G01X747954Y-466725D01*
G01X726673Y-468697D01*
G01X706117Y-474546D01*
G01X686986Y-484072D01*
G01X669931Y-496951D01*
G01X655532Y-512745D01*
G01X644282Y-530916D01*
G01X636561Y-550845D01*
G01X632634Y-571853D01*
G01X609274Y-571853D01*
G01X605347Y-550845D01*
G01X597626Y-530916D01*
G01X586375Y-512745D01*
G01X571977Y-496951D01*
G01X554922Y-484072D01*
G01X535791Y-474546D01*
G01X515235Y-468697D01*
G01X493954Y-466725D01*
G01X472673Y-468697D01*
G01X452117Y-474546D01*
G01X432986Y-484072D01*
G01X415931Y-496951D01*
G01X401532Y-512745D01*
G01X390282Y-530916D01*
G01X382561Y-550845D01*
G01X378634Y-571853D01*
G01X355274Y-571853D01*
G01X351347Y-550845D01*
G01X343626Y-530916D01*
G01X332375Y-512745D01*
G01X317977Y-496951D01*
G01X300922Y-484072D01*
G01X281791Y-474546D01*
G01X261235Y-468697D01*
G01X239954Y-466725D01*
G01X218673Y-468697D01*
G01X198117Y-474546D01*
G01X178986Y-484072D01*
G01X161931Y-496951D01*
G01X147532Y-512745D01*
G01X136282Y-530916D01*
G01X128561Y-550845D01*
G01X124634Y-571853D01*
G01X-205486Y-571853D01*
G01X-205486Y-332214D01*
G01X2538980Y-332214D01*
G01X2538980Y-353586D01*
G01X2542907Y-374594D01*
G01X2550628Y-394523D01*
G01X2561878Y-412694D01*
G01X2576277Y-428488D01*
G01X2593332Y-441367D01*
G01X2612463Y-450893D01*
G01X2633019Y-456742D01*
G01X2654300Y-458714D01*
G01X2654300Y-458714D01*
G01X2675581Y-456742D01*
G01X2696137Y-450893D01*
G01X2715268Y-441367D01*
G01X2732323Y-428488D01*
G01X2746722Y-412694D01*
G01X2757972Y-394523D01*
G01X2765693Y-374594D01*
G01X2769620Y-353586D01*
G01X2769620Y-332214D01*
G01X2765693Y-311206D01*
G01X2757972Y-291277D01*
G01X2746722Y-273106D01*
G01X2732323Y-257312D01*
G01X2715268Y-244433D01*
G01X2696137Y-234907D01*
G01X2675581Y-229058D01*
G01X2654300Y-227086D01*
G01X2633019Y-229058D01*
G01X2612463Y-234907D01*
G01X2593332Y-244433D01*
G01X2576277Y-257312D01*
G01X2561878Y-273106D01*
G01X2550628Y-291277D01*
G01X2542907Y-311206D01*
G01X2538980Y-332214D01*
G01X-205486Y-332214D01*
G01X-205486Y0D01*
G01X-141214Y0D01*
G01X-139242Y-21281D01*
G01X-133393Y-41837D01*
G01X-123867Y-60968D01*
G01X-110988Y-78023D01*
G01X-95194Y-92422D01*
G01X-77023Y-103672D01*
G01X-57094Y-111393D01*
G01X-36086Y-115320D01*
G01X-14714Y-115320D01*
G01X6294Y-111393D01*
G01X26223Y-103672D01*
G01X44394Y-92422D01*
G01X60188Y-78023D01*
G01X73067Y-60968D01*
G01X82593Y-41837D01*
G01X88442Y-21281D01*
G01X90414Y0D01*
G01X89237Y12700D01*
G01X620286Y12700D01*
G01X622197Y-9147D01*
G01X627873Y-30331D01*
G01X637142Y-50207D01*
G01X649721Y-68172D01*
G01X665228Y-83679D01*
G01X683193Y-96258D01*
G01X703069Y-105526D01*
G01X724252Y-111202D01*
G01X746100Y-113114D01*
G01X767947Y-111202D01*
G01X789130Y-105526D01*
G01X809007Y-96258D01*
G01X826971Y-83679D01*
G01X842479Y-68172D01*
G01X855058Y-50207D01*
G01X864326Y-30331D01*
G01X870002Y-9147D01*
G01X871913Y12700D01*
G01X1490287Y12700D01*
G01X1492198Y-9147D01*
G01X1497874Y-30331D01*
G01X1507142Y-50207D01*
G01X1519721Y-68172D01*
G01X1535229Y-83679D01*
G01X1553193Y-96258D01*
G01X1573070Y-105526D01*
G01X1594253Y-111202D01*
G01X1616100Y-113114D01*
G01X1637948Y-111202D01*
G01X1659131Y-105526D01*
G01X1679007Y-96258D01*
G01X1696972Y-83679D01*
G01X1704451Y-76200D01*
G01X2538486Y-76200D01*
G01X2540458Y-97481D01*
G01X2546307Y-118037D01*
G01X2555833Y-137168D01*
G01X2568712Y-154223D01*
G01X2584506Y-168622D01*
G01X2602677Y-179872D01*
G01X2622606Y-187593D01*
G01X2643614Y-191520D01*
G01X2664986Y-191520D01*
G01X2685994Y-187593D01*
G01X2705923Y-179872D01*
G01X2724094Y-168622D01*
G01X2739888Y-154223D01*
G01X2752767Y-137168D01*
G01X2762293Y-118037D01*
G01X2768142Y-97481D01*
G01X2770114Y-76200D01*
G01X2768142Y-54919D01*
G01X2762293Y-34363D01*
G01X2752767Y-15232D01*
G01X2739888Y1823D01*
G01X2724094Y16222D01*
G01X2705923Y27472D01*
G01X2685994Y35193D01*
G01X2664986Y39120D01*
G01X2643614Y39120D01*
G01X2622606Y35193D01*
G01X2602677Y27472D01*
G01X2584506Y16222D01*
G01X2568712Y1823D01*
G01X2555833Y-15232D01*
G01X2546307Y-34363D01*
G01X2540458Y-54919D01*
G01X2538486Y-76200D01*
G01X2538486Y-76200D01*
G01X1704451Y-76200D01*
G01X1712479Y-68172D01*
G01X1725058Y-50207D01*
G01X1734327Y-30331D01*
G01X1740003Y-9147D01*
G01X1741914Y12700D01*
G01X1740003Y34547D01*
G01X1734327Y55731D01*
G01X1725058Y75607D01*
G01X1712479Y93572D01*
G01X1696972Y109079D01*
G01X1679007Y121658D01*
G01X1659131Y130926D01*
G01X1637948Y136602D01*
G01X1616100Y138514D01*
G01X1594253Y136602D01*
G01X1573070Y130926D01*
G01X1553193Y121658D01*
G01X1535229Y109079D01*
G01X1519721Y93572D01*
G01X1507142Y75607D01*
G01X1497874Y55731D01*
G01X1492198Y34547D01*
G01X1490287Y12700D01*
G01X1490287Y12700D01*
G01X871913Y12700D01*
G01X870002Y34547D01*
G01X864326Y55731D01*
G01X855058Y75607D01*
G01X842479Y93572D01*
G01X826971Y109079D01*
G01X809007Y121658D01*
G01X789130Y130926D01*
G01X767947Y136602D01*
G01X746100Y138514D01*
G01X724252Y136602D01*
G01X703069Y130926D01*
G01X683193Y121658D01*
G01X665228Y109079D01*
G01X649721Y93572D01*
G01X637142Y75607D01*
G01X627873Y55731D01*
G01X622197Y34547D01*
G01X620286Y12700D01*
G01X620286Y12700D01*
G01X89237Y12700D01*
G01X88442Y21281D01*
G01X82593Y41837D01*
G01X73067Y60968D01*
G01X60188Y78023D01*
G01X44394Y92422D01*
G01X26223Y103672D01*
G01X6294Y111393D01*
G01X-14714Y115320D01*
G01X-36086Y115320D01*
G01X-57094Y111393D01*
G01X-77023Y103672D01*
G01X-95194Y92422D01*
G01X-110988Y78023D01*
G01X-123867Y60968D01*
G01X-133393Y41837D01*
G01X-139242Y21281D01*
G01X-141214Y0D01*
G01X-141214Y0D01*
G01X-205486Y0D01*
G01X-205486Y370586D01*
G01X2796286Y370586D01*
G37*
G54D10*
G01X2796286Y370586D02*
G01X2796286Y-1856486D01*
G01X-205486Y-1856486D01*
G01X-205486Y370586D01*
G01X2796286Y370586D01*
G01X-141214Y0D02*
G03X90414Y0I115814J0D01*
G03X-141214Y0I-115814J0D01*
G01X239954Y-698353D02*
G03X239954Y-466725I0J115814D01*
G03X239954Y-698353I0J-115814D01*
G01X239954Y-1460353D02*
G03X239954Y-1228725I0J115814D01*
G03X239954Y-1460353I0J-115814D01*
G01X125486Y-1727200D02*
G03X357114Y-1727200I115814J0D01*
G03X125486Y-1727200I-115814J0D01*
G01X493954Y-698353D02*
G03X493954Y-466725I0J115814D01*
G03X493954Y-698353I0J-115814D01*
G01X493954Y-1460353D02*
G03X493954Y-1228725I0J115814D01*
G03X493954Y-1460353I0J-115814D01*
G01X379486Y-1727200D02*
G03X611114Y-1727200I115814J0D01*
G03X379486Y-1727200I-115814J0D01*
G01X620286Y12700D02*
G03X871913Y12700I125814J0D01*
G03X620286Y12700I-125814J0D01*
G01X747954Y-698353D02*
G03X747954Y-466725I0J115814D01*
G03X747954Y-698353I0J-115814D01*
G01X747954Y-1460353D02*
G03X747954Y-1228725I0J115814D01*
G03X747954Y-1460353I0J-115814D01*
G01X633486Y-1727200D02*
G03X865114Y-1727200I115814J0D01*
G03X633486Y-1727200I-115814J0D01*
G01X1001954Y-698353D02*
G03X1001954Y-466725I0J115814D01*
G03X1001954Y-698353I0J-115814D01*
G01X1001954Y-1460353D02*
G03X1001954Y-1228725I0J115814D01*
G03X1001954Y-1460353I0J-115814D01*
G01X887486Y-1727200D02*
G03X1119114Y-1727200I115814J0D01*
G03X887486Y-1727200I-115814J0D01*
G01X1255954Y-698353D02*
G03X1255954Y-466725I0J115814D01*
G03X1255954Y-698353I0J-115814D01*
G01X1255954Y-1460353D02*
G03X1255954Y-1228725I0J115814D01*
G03X1255954Y-1460353I0J-115814D01*
G01X1141486Y-1727200D02*
G03X1373114Y-1727200I115814J0D01*
G03X1141486Y-1727200I-115814J0D01*
G01X1509954Y-698353D02*
G03X1509954Y-466725I0J115814D01*
G03X1509954Y-698353I0J-115814D01*
G01X1509954Y-1460353D02*
G03X1509954Y-1228725I0J115814D01*
G03X1509954Y-1460353I0J-115814D01*
G01X1395486Y-1727200D02*
G03X1627114Y-1727200I115814J0D01*
G03X1395486Y-1727200I-115814J0D01*
G01X1490287Y12700D02*
G03X1741914Y12700I125814J0D01*
G03X1490287Y12700I-125814J0D01*
G01X1763954Y-698353D02*
G03X1763954Y-466725I0J115814D01*
G03X1763954Y-698353I0J-115814D01*
G01X1763954Y-1460353D02*
G03X1763954Y-1228725I0J115814D01*
G03X1763954Y-1460353I0J-115814D01*
G01X1649486Y-1727200D02*
G03X1881114Y-1727200I115814J0D01*
G03X1649486Y-1727200I-115814J0D01*
G01X2017954Y-698353D02*
G03X2017954Y-466725I0J115814D01*
G03X2017954Y-698353I0J-115814D01*
G01X2017954Y-1460353D02*
G03X2017954Y-1228725I0J115814D01*
G03X2017954Y-1460353I0J-115814D01*
G01X2132086Y-1739900D02*
G03X2363714Y-1739900I115814J0D01*
G03X2132086Y-1739900I-115814J0D01*
G01X2654300Y-458714D02*
G03X2654300Y-227086I0J115814D01*
G03X2654300Y-458714I0J-115814D01*
G01X2538486Y-76200D02*
G03X2770114Y-76200I115814J0D01*
G03X2538486Y-76200I-115814J0D01*
G01X2654300Y-712714D02*
G03X2654300Y-481086I0J115814D01*
G03X2654300Y-712714I0J-115814D01*
G01X2654300Y-966714D02*
G03X2654300Y-735086I0J115814D01*
G03X2654300Y-966714I0J-115814D01*
G01X2654300Y-1220714D02*
G03X2654300Y-989086I0J115814D01*
G03X2654300Y-1220714I0J-115814D01*
G01X2654300Y-1728714D02*
G03X2654300Y-1497086I0J115814D01*
G03X2654300Y-1728714I0J-115814D01*
G01X2654300Y-1474714D02*
G03X2654300Y-1243086I0J115814D01*
G03X2654300Y-1474714I0J-115814D01*
G54D11*
G01X1001954Y-662285D02*
G01X1001954Y-688193D01*
G01X1001954Y-502793D02*
G01X1001954Y-476885D01*
G01X922208Y-582539D02*
G01X896300Y-582539D01*
G01X1081700Y-582539D02*
G01X1107608Y-582539D01*
G01X1526355Y12700D02*
G01X1500447Y12700D01*
G01X1705846Y12700D02*
G01X1731754Y12700D01*
G01X1616100Y102446D02*
G01X1616100Y128354D01*
G01X1616100Y-77046D02*
G01X1616100Y-102954D01*
G01X2574554Y-76200D02*
G01X2548646Y-76200D01*
G01X2734046Y-76200D02*
G01X2759954Y-76200D01*
G01X2654300Y3546D02*
G01X2654300Y29454D01*
G01X2654300Y-155946D02*
G01X2654300Y-181854D01*
G01X2654300Y-422646D02*
G01X2654300Y-448554D01*
G01X2654300Y-263154D02*
G01X2654300Y-237246D01*
G01X2574554Y-342900D02*
G01X2548646Y-342900D01*
G01X2734046Y-342900D02*
G01X2759954Y-342900D01*
G01X2654300Y-676646D02*
G01X2654300Y-702554D01*
G01X2654300Y-517154D02*
G01X2654300Y-491246D01*
G01X2574554Y-596900D02*
G01X2548646Y-596900D01*
G01X2734046Y-596900D02*
G01X2759954Y-596900D01*
G01X2654300Y-930646D02*
G01X2654300Y-956554D01*
G01X2654300Y-771154D02*
G01X2654300Y-745246D01*
G01X2574554Y-850900D02*
G01X2548646Y-850900D01*
G01X2734046Y-850900D02*
G01X2759954Y-850900D01*
G01X2654300Y-1184646D02*
G01X2654300Y-1210554D01*
G01X2654300Y-1025154D02*
G01X2654300Y-999246D01*
G01X2574554Y-1104900D02*
G01X2548646Y-1104900D01*
G01X2734046Y-1104900D02*
G01X2759954Y-1104900D01*
G01X2654300Y-1438646D02*
G01X2654300Y-1464554D01*
G01X2654300Y-1279154D02*
G01X2654300Y-1253246D01*
G01X2574554Y-1358900D02*
G01X2548646Y-1358900D01*
G01X2734046Y-1358900D02*
G01X2759954Y-1358900D01*
G01X2654300Y-1692646D02*
G01X2654300Y-1718554D01*
G01X2654300Y-1533154D02*
G01X2654300Y-1507246D01*
G01X2574554Y-1612900D02*
G01X2548646Y-1612900D01*
G01X2734046Y-1612900D02*
G01X2759954Y-1612900D01*
G04 Copper End*

G04 Pad Start*
G54D12*
G01X2247900Y-1739900D03*
G01X241300Y-1727200D03*
G01X1511300Y-1727200D03*
G01X1257300Y-1727200D03*
G01X1003300Y-1727200D03*
G01X749300Y-1727200D03*
G01X495300Y-1727200D03*
G01X2654300Y-1612900D03*
G01X2654300Y-1358900D03*
G01X2654300Y-1104900D03*
G01X2654300Y-850900D03*
G01X2654300Y-596900D03*
G01X2654300Y-342900D03*
G01X-25400Y0D03*
G01X1765300Y-1727200D03*
G01X2654300Y-76200D03*
G54D13*
G01X746100Y12700D03*
G01X1616100Y12700D03*
G54D12*
G01X239954Y-1344539D03*
G01X493954Y-1344539D03*
G01X747954Y-1344539D03*
G01X1001954Y-1344539D03*
G01X1255954Y-1344539D03*
G01X1509954Y-1344539D03*
G01X1763954Y-1344539D03*
G01X2017954Y-1344539D03*
G01X2017954Y-582539D03*
G01X1763954Y-582539D03*
G01X1509954Y-582539D03*
G01X1255954Y-582539D03*
G01X1001954Y-582539D03*
G01X747954Y-582539D03*
G01X493954Y-582539D03*
G01X239954Y-582539D03*
G04 Pad End*

M02*

