G04 Layer: TopSilkscreenLayer*
G04 EasyEDA Pro v2.2.39.2, 2025-06-16 16:20:03*
G04 Gerber Generator version 0.3*
G04 Scale: 100 percent, Rotated: No, Reflected: No*
G04 Dimensions in millimeters*
G04 Leading zeros omitted, absolute positions, 4 integers and 5 decimals*
G04 Generated by one-click*
%FSLAX45Y45*%
%MOMM*%
%ADD10C,0.1524*%
%ADD11C,0.254*%
%ADD12C,0.3810*%
G75*


G04 Text Start*
G54D10*
G01X706120Y297434D02*
G01X706120Y232410D01*
G01X706120Y297434D02*
G01X727710Y297434D01*
G01X737108Y294386D01*
G01X743204Y288290D01*
G01X746252Y281940D01*
G01X749554Y272796D01*
G01X749554Y257302D01*
G01X746252Y247904D01*
G01X743204Y241808D01*
G01X737108Y235458D01*
G01X727710Y232410D01*
G01X706120Y232410D01*
G01X779780Y284988D02*
G01X785876Y288290D01*
G01X795020Y297434D01*
G01X795020Y232410D01*
G01X7620Y-393065D02*
G01X7620Y-439547D01*
G01X10668Y-448691D01*
G01X17018Y-455041D01*
G01X26162Y-458089D01*
G01X32512Y-458089D01*
G01X41656Y-455041D01*
G01X47752Y-448691D01*
G01X51054Y-439547D01*
G01X51054Y-393065D01*
G01X81280Y-405511D02*
G01X87376Y-402209D01*
G01X96520Y-393065D01*
G01X96520Y-458089D01*
G04 Text End*

G04 PolygonModel Start*
G54D11*
G01X921101Y152700D02*
G01X1441099Y152700D01*
G01X1441099Y152700D02*
G01X1441099Y-127300D01*
G01X921101Y-127300D02*
G01X1441099Y-127300D01*
G01X921101Y152700D02*
G01X921101Y-127300D01*
G01X1017026Y152700D02*
G01X1017026Y-127300D01*
G01X18956Y-863719D02*
G01X18953Y-643725D01*
G01X1847019Y-1283525D02*
G01X1934888Y-1283525D01*
G01X1593019Y-1283525D02*
G01X1680888Y-1283525D01*
G01X1339019Y-1283525D02*
G01X1426888Y-1283525D01*
G01X1085019Y-1283525D02*
G01X1172888Y-1283525D01*
G01X831019Y-1283525D02*
G01X918888Y-1283525D01*
G01X577019Y-1283525D02*
G01X664888Y-1283525D01*
G01X323019Y-1283525D02*
G01X410888Y-1283525D01*
G01X128953Y-1283525D02*
G01X156888Y-1283525D01*
G01X2100887Y-643725D02*
G01X2128954Y-643725D01*
G01X1846887Y-643725D02*
G01X1935020Y-643725D01*
G01X1592887Y-643725D02*
G01X1681020Y-643725D01*
G01X1338887Y-643725D02*
G01X1427020Y-643725D01*
G01X1084887Y-643725D02*
G01X1173020Y-643725D01*
G01X830887Y-643725D02*
G01X919020Y-643725D01*
G01X576887Y-643725D02*
G01X665020Y-643725D01*
G01X322887Y-643725D02*
G01X411020Y-643725D01*
G01X128953Y-643725D02*
G01X157020Y-643725D01*
G01X18956Y-1283525D02*
G01X18953Y-1063539D01*
G01X2238952Y-1283525D02*
G01X2238954Y-643552D01*
G01X2101019Y-1283525D02*
G01X2128954Y-1283525D01*
G01X18953Y-643725D02*
G01X157018Y-643725D01*
G01X322890Y-643725D02*
G01X411018Y-643725D01*
G01X576890Y-643725D02*
G01X665018Y-643725D01*
G01X830890Y-643725D02*
G01X919018Y-643725D01*
G01X1084890Y-643725D02*
G01X1173018Y-643725D01*
G01X1338890Y-643725D02*
G01X1427018Y-643725D01*
G01X1592890Y-643725D02*
G01X1681018Y-643725D01*
G01X1846890Y-643725D02*
G01X1935018Y-643725D01*
G01X2100890Y-643725D02*
G01X2228952Y-643725D01*
G01X18956Y-1283525D02*
G01X156891Y-1283525D01*
G01X323017Y-1283525D02*
G01X410891Y-1283525D01*
G01X577017Y-1283525D02*
G01X664891Y-1283525D01*
G01X831017Y-1283525D02*
G01X918891Y-1283525D01*
G01X1085017Y-1283525D02*
G01X1172891Y-1283525D01*
G01X1339017Y-1283525D02*
G01X1426891Y-1283525D01*
G01X1593017Y-1283525D02*
G01X1680891Y-1283525D01*
G01X1847017Y-1283525D02*
G01X1934891Y-1283525D01*
G01X2101017Y-1283525D02*
G01X2238952Y-1283525D01*
G01X18956Y-863719D02*
G02X18974Y-1063615I-495J-99948D01*

G04 Circle Start*
G01X44958Y-1371539D02*
G03X104953Y-1371539I29997J0D01*
G03X44958Y-1371539I-29997J0D01*
G04 Circle End*

M02*

