G04 Layer: BottomLayer*
G04 EasyEDA Pro v2.2.39.2, 2025-06-16 16:20:03*
G04 Gerber Generator version 0.3*
G04 Scale: 100 percent, Rotated: No, Reflected: No*
G04 Dimensions in millimeters*
G04 Leading zeros omitted, absolute positions, 4 integers and 5 decimals*
G04 Generated by one-click*
%FSLAX45Y45*%
%MOMM*%
%ADD10C,0.2032*%
%ADD11C,0.254*%
%ADD12C,1.6*%
%ADD13C,1.8*%
%ADD14C,0.76*%
%ADD15C,0.6687*%
G75*


G04 Copper Start*
G36*
G01X2796286Y370586D02*
G01X2796286Y-1856486D01*
G01X-205486Y-1856486D01*
G01X-205486Y-1358900D01*
G01X-200814Y-1358900D01*
G01X-199396Y-1373300D01*
G01X-195195Y-1387147D01*
G01X-188374Y-1399909D01*
G01X-179194Y-1411094D01*
G01X126001Y-1716290D01*
G01X125928Y-1737313D01*
G01X129658Y-1758003D01*
G01X137065Y-1777678D01*
G01X147908Y-1795690D01*
G01X161828Y-1811444D01*
G01X178367Y-1824423D01*
G01X196980Y-1834198D01*
G01X217053Y-1840447D01*
G01X237925Y-1842965D01*
G01X258908Y-1841668D01*
G01X279312Y-1836598D01*
G01X298462Y-1827924D01*
G01X315729Y-1815931D01*
G01X330543Y-1801014D01*
G01X406057Y-1801014D01*
G01X420355Y-1815496D01*
G01X436968Y-1827251D01*
G01X455381Y-1835917D01*
G01X475028Y-1841226D01*
G01X495300Y-1843014D01*
G01X515572Y-1841226D01*
G01X535219Y-1835917D01*
G01X553632Y-1827251D01*
G01X570245Y-1815496D01*
G01X584543Y-1801014D01*
G01X660057Y-1801014D01*
G01X674355Y-1815496D01*
G01X690968Y-1827251D01*
G01X709381Y-1835917D01*
G01X729028Y-1841226D01*
G01X749300Y-1843014D01*
G01X769572Y-1841226D01*
G01X789219Y-1835917D01*
G01X807632Y-1827251D01*
G01X824245Y-1815496D01*
G01X838543Y-1801014D01*
G01X914057Y-1801014D01*
G01X928355Y-1815496D01*
G01X944968Y-1827251D01*
G01X963381Y-1835917D01*
G01X983028Y-1841226D01*
G01X1003300Y-1843014D01*
G01X1023572Y-1841226D01*
G01X1043219Y-1835917D01*
G01X1061632Y-1827251D01*
G01X1078245Y-1815496D01*
G01X1092543Y-1801014D01*
G01X1168057Y-1801014D01*
G01X1182355Y-1815496D01*
G01X1198968Y-1827251D01*
G01X1217381Y-1835917D01*
G01X1237028Y-1841226D01*
G01X1257300Y-1843014D01*
G01X1277572Y-1841226D01*
G01X1297219Y-1835917D01*
G01X1315632Y-1827251D01*
G01X1332245Y-1815496D01*
G01X1346543Y-1801014D01*
G01X1422057Y-1801014D01*
G01X1436355Y-1815496D01*
G01X1452968Y-1827251D01*
G01X1471381Y-1835917D01*
G01X1491028Y-1841226D01*
G01X1511300Y-1843014D01*
G01X1531572Y-1841226D01*
G01X1551219Y-1835917D01*
G01X1569632Y-1827251D01*
G01X1586245Y-1815496D01*
G01X1600543Y-1801014D01*
G01X1676057Y-1801014D01*
G01X1690275Y-1815428D01*
G01X1706786Y-1827145D01*
G01X1725085Y-1835808D01*
G01X1744613Y-1841151D01*
G01X1764773Y-1843013D01*
G01X1784949Y-1841335D01*
G01X1804525Y-1836169D01*
G01X1822903Y-1827673D01*
G01X1839519Y-1816107D01*
G01X1853868Y-1801823D01*
G01X1865510Y-1785259D01*
G01X1874089Y-1766921D01*
G01X1879344Y-1747369D01*
G01X1881114Y-1727200D01*
G01X1879344Y-1707031D01*
G01X1874089Y-1687479D01*
G01X1865510Y-1669141D01*
G01X1853868Y-1652577D01*
G01X1839519Y-1638293D01*
G01X1822903Y-1626727D01*
G01X1804525Y-1618231D01*
G01X1784949Y-1613065D01*
G01X1764773Y-1611387D01*
G01X1744613Y-1613249D01*
G01X1725085Y-1618592D01*
G01X1706786Y-1627255D01*
G01X1690275Y-1638972D01*
G01X1676057Y-1653386D01*
G01X1600543Y-1653386D01*
G01X1586245Y-1638904D01*
G01X1569632Y-1627149D01*
G01X1551219Y-1618483D01*
G01X1531572Y-1613174D01*
G01X1511300Y-1611386D01*
G01X1491028Y-1613174D01*
G01X1471381Y-1618483D01*
G01X1452968Y-1627149D01*
G01X1436355Y-1638904D01*
G01X1422057Y-1653386D01*
G01X1346543Y-1653386D01*
G01X1332245Y-1638904D01*
G01X1315632Y-1627149D01*
G01X1297219Y-1618483D01*
G01X1277572Y-1613174D01*
G01X1257300Y-1611386D01*
G01X1237028Y-1613174D01*
G01X1217381Y-1618483D01*
G01X1198968Y-1627149D01*
G01X1182355Y-1638904D01*
G01X1168057Y-1653386D01*
G01X1092543Y-1653386D01*
G01X1078245Y-1638904D01*
G01X1061632Y-1627149D01*
G01X1043219Y-1618483D01*
G01X1023572Y-1613174D01*
G01X1003300Y-1611386D01*
G01X983028Y-1613174D01*
G01X963381Y-1618483D01*
G01X944968Y-1627149D01*
G01X928355Y-1638904D01*
G01X914057Y-1653386D01*
G01X838543Y-1653386D01*
G01X824245Y-1638904D01*
G01X807632Y-1627149D01*
G01X789219Y-1618483D01*
G01X769572Y-1613174D01*
G01X749300Y-1611386D01*
G01X729028Y-1613174D01*
G01X709381Y-1618483D01*
G01X690968Y-1627149D01*
G01X674355Y-1638904D01*
G01X660057Y-1653386D01*
G01X584543Y-1653386D01*
G01X570245Y-1638904D01*
G01X553632Y-1627149D01*
G01X535219Y-1618483D01*
G01X515572Y-1613174D01*
G01X495300Y-1611386D01*
G01X475028Y-1613174D01*
G01X455381Y-1618483D01*
G01X436968Y-1627149D01*
G01X420355Y-1638904D01*
G01X406057Y-1653386D01*
G01X330543Y-1653386D01*
G01X317439Y-1639932D01*
G01X302332Y-1628773D01*
G01X285620Y-1620202D01*
G01X267743Y-1614445D01*
G01X249170Y-1611654D01*
G01X230390Y-1611901D01*
G01X-47658Y-1333853D01*
G01X124634Y-1333853D01*
G01X124634Y-1355225D01*
G01X128561Y-1376233D01*
G01X136282Y-1396162D01*
G01X147532Y-1414332D01*
G01X161931Y-1430126D01*
G01X178986Y-1443006D01*
G01X198117Y-1452532D01*
G01X218673Y-1458381D01*
G01X239954Y-1460353D01*
G01X239954Y-1460353D01*
G01X261235Y-1458381D01*
G01X281791Y-1452532D01*
G01X300922Y-1443006D01*
G01X317977Y-1430126D01*
G01X332375Y-1414332D01*
G01X343626Y-1396162D01*
G01X351347Y-1376233D01*
G01X355274Y-1355225D01*
G01X355274Y-1333853D01*
G01X355274Y-1333853D01*
G01X378634Y-1333853D01*
G01X378634Y-1355225D01*
G01X382561Y-1376233D01*
G01X390282Y-1396162D01*
G01X401532Y-1414332D01*
G01X415931Y-1430126D01*
G01X432986Y-1443006D01*
G01X452117Y-1452532D01*
G01X472673Y-1458381D01*
G01X493954Y-1460353D01*
G01X493954Y-1460353D01*
G01X515235Y-1458381D01*
G01X535791Y-1452532D01*
G01X554922Y-1443006D01*
G01X571977Y-1430126D01*
G01X586375Y-1414332D01*
G01X597626Y-1396162D01*
G01X605347Y-1376233D01*
G01X609274Y-1355225D01*
G01X609274Y-1333853D01*
G01X609274Y-1333853D01*
G01X632634Y-1333853D01*
G01X632634Y-1355225D01*
G01X636561Y-1376233D01*
G01X644282Y-1396162D01*
G01X655532Y-1414332D01*
G01X669931Y-1430126D01*
G01X686986Y-1443006D01*
G01X706117Y-1452532D01*
G01X726673Y-1458381D01*
G01X747954Y-1460353D01*
G01X747954Y-1460353D01*
G01X769235Y-1458381D01*
G01X789791Y-1452532D01*
G01X808922Y-1443006D01*
G01X825977Y-1430126D01*
G01X840375Y-1414332D01*
G01X851626Y-1396162D01*
G01X859347Y-1376233D01*
G01X863274Y-1355225D01*
G01X863274Y-1333853D01*
G01X863274Y-1333853D01*
G01X886634Y-1333853D01*
G01X886634Y-1355225D01*
G01X890561Y-1376233D01*
G01X898282Y-1396162D01*
G01X909532Y-1414332D01*
G01X923931Y-1430126D01*
G01X940986Y-1443006D01*
G01X960117Y-1452532D01*
G01X980673Y-1458381D01*
G01X1001954Y-1460353D01*
G01X1001954Y-1460353D01*
G01X1023235Y-1458381D01*
G01X1043791Y-1452532D01*
G01X1062922Y-1443006D01*
G01X1079977Y-1430126D01*
G01X1094375Y-1414332D01*
G01X1105626Y-1396162D01*
G01X1113347Y-1376233D01*
G01X1117274Y-1355225D01*
G01X1117274Y-1333853D01*
G01X1117274Y-1333853D01*
G01X1140634Y-1333853D01*
G01X1140634Y-1355225D01*
G01X1144561Y-1376233D01*
G01X1152282Y-1396162D01*
G01X1163532Y-1414332D01*
G01X1177931Y-1430126D01*
G01X1194986Y-1443006D01*
G01X1214117Y-1452532D01*
G01X1234673Y-1458381D01*
G01X1255954Y-1460353D01*
G01X1255954Y-1460353D01*
G01X1277235Y-1458381D01*
G01X1297791Y-1452532D01*
G01X1316922Y-1443006D01*
G01X1333977Y-1430126D01*
G01X1348375Y-1414332D01*
G01X1359626Y-1396162D01*
G01X1367347Y-1376233D01*
G01X1371274Y-1355225D01*
G01X1371274Y-1333853D01*
G01X1371274Y-1333853D01*
G01X1394634Y-1333853D01*
G01X1394634Y-1355225D01*
G01X1398561Y-1376233D01*
G01X1406282Y-1396162D01*
G01X1417532Y-1414332D01*
G01X1431931Y-1430126D01*
G01X1448986Y-1443006D01*
G01X1468117Y-1452532D01*
G01X1488673Y-1458381D01*
G01X1509954Y-1460353D01*
G01X1509954Y-1460353D01*
G01X1531235Y-1458381D01*
G01X1551791Y-1452532D01*
G01X1570922Y-1443006D01*
G01X1587977Y-1430126D01*
G01X1602375Y-1414332D01*
G01X1613626Y-1396162D01*
G01X1621347Y-1376233D01*
G01X1625274Y-1355225D01*
G01X1625274Y-1333853D01*
G01X1625274Y-1333853D01*
G01X1648634Y-1333853D01*
G01X1648634Y-1355225D01*
G01X1652561Y-1376233D01*
G01X1660282Y-1396162D01*
G01X1671532Y-1414332D01*
G01X1685931Y-1430126D01*
G01X1702986Y-1443006D01*
G01X1722117Y-1452532D01*
G01X1742673Y-1458381D01*
G01X1763954Y-1460353D01*
G01X1763954Y-1460353D01*
G01X1785235Y-1458381D01*
G01X1805791Y-1452532D01*
G01X1824922Y-1443006D01*
G01X1841977Y-1430126D01*
G01X1856375Y-1414332D01*
G01X1867626Y-1396162D01*
G01X1875347Y-1376233D01*
G01X1879274Y-1355225D01*
G01X1879274Y-1334678D01*
G01X1902560Y-1334678D01*
G01X1902607Y-1354924D01*
G01X1906178Y-1374853D01*
G01X1913165Y-1393855D01*
G01X1923354Y-1411350D01*
G01X1936434Y-1426803D01*
G01X1952006Y-1439743D01*
G01X1969593Y-1449772D01*
G01X1988658Y-1456586D01*
G01X2008618Y-1459976D01*
G01X2028864Y-1459838D01*
G01X2174086Y-1605060D01*
G01X2174086Y-1605060D01*
G01X2174086Y-1650657D01*
G01X2159672Y-1664875D01*
G01X2147955Y-1681386D01*
G01X2139292Y-1699685D01*
G01X2133949Y-1719213D01*
G01X2132087Y-1739373D01*
G01X2133765Y-1759549D01*
G01X2138931Y-1779125D01*
G01X2147427Y-1797503D01*
G01X2158993Y-1814119D01*
G01X2173277Y-1828468D01*
G01X2189841Y-1840110D01*
G01X2208179Y-1848689D01*
G01X2227731Y-1853944D01*
G01X2247900Y-1855714D01*
G01X2268069Y-1853944D01*
G01X2287621Y-1848689D01*
G01X2305959Y-1840110D01*
G01X2322523Y-1828468D01*
G01X2336807Y-1814119D01*
G01X2348373Y-1797503D01*
G01X2356869Y-1779125D01*
G01X2362035Y-1759549D01*
G01X2363713Y-1739373D01*
G01X2361851Y-1719213D01*
G01X2356508Y-1699685D01*
G01X2347845Y-1681386D01*
G01X2336128Y-1664875D01*
G01X2321714Y-1650657D01*
G01X2321714Y-1602214D01*
G01X2538980Y-1602214D01*
G01X2538980Y-1623586D01*
G01X2542907Y-1644594D01*
G01X2550628Y-1664523D01*
G01X2561878Y-1682694D01*
G01X2576277Y-1698488D01*
G01X2593332Y-1711367D01*
G01X2612463Y-1720893D01*
G01X2633019Y-1726742D01*
G01X2654300Y-1728714D01*
G01X2654300Y-1728714D01*
G01X2675581Y-1726742D01*
G01X2696137Y-1720893D01*
G01X2715268Y-1711367D01*
G01X2732323Y-1698488D01*
G01X2746722Y-1682694D01*
G01X2757972Y-1664523D01*
G01X2765693Y-1644594D01*
G01X2769620Y-1623586D01*
G01X2769620Y-1602214D01*
G01X2765693Y-1581206D01*
G01X2757972Y-1561277D01*
G01X2746722Y-1543106D01*
G01X2732323Y-1527312D01*
G01X2715268Y-1514433D01*
G01X2696137Y-1504907D01*
G01X2675581Y-1499058D01*
G01X2654300Y-1497086D01*
G01X2633019Y-1499058D01*
G01X2612463Y-1504907D01*
G01X2593332Y-1514433D01*
G01X2576277Y-1527312D01*
G01X2561878Y-1543106D01*
G01X2550628Y-1561277D01*
G01X2542907Y-1581206D01*
G01X2538980Y-1602214D01*
G01X2321714Y-1602214D01*
G01X2321714Y-1574485D01*
G01X2320296Y-1560085D01*
G01X2316095Y-1546238D01*
G01X2309274Y-1533476D01*
G01X2300094Y-1522291D01*
G01X2133253Y-1355449D01*
G01X2133302Y-1348214D01*
G01X2538980Y-1348214D01*
G01X2538980Y-1369586D01*
G01X2542907Y-1390594D01*
G01X2550628Y-1410523D01*
G01X2561878Y-1428694D01*
G01X2576277Y-1444488D01*
G01X2593332Y-1457367D01*
G01X2612463Y-1466893D01*
G01X2633019Y-1472742D01*
G01X2654300Y-1474714D01*
G01X2654300Y-1474714D01*
G01X2675581Y-1472742D01*
G01X2696137Y-1466893D01*
G01X2715268Y-1457367D01*
G01X2732323Y-1444488D01*
G01X2746722Y-1428694D01*
G01X2757972Y-1410523D01*
G01X2765693Y-1390594D01*
G01X2769620Y-1369586D01*
G01X2769620Y-1348214D01*
G01X2765693Y-1327206D01*
G01X2757972Y-1307277D01*
G01X2746722Y-1289106D01*
G01X2732323Y-1273312D01*
G01X2715268Y-1260433D01*
G01X2696137Y-1250907D01*
G01X2675581Y-1245058D01*
G01X2654300Y-1243086D01*
G01X2633019Y-1245058D01*
G01X2612463Y-1250907D01*
G01X2593332Y-1260433D01*
G01X2576277Y-1273312D01*
G01X2561878Y-1289106D01*
G01X2550628Y-1307277D01*
G01X2542907Y-1327206D01*
G01X2538980Y-1348214D01*
G01X2133302Y-1348214D01*
G01X2133391Y-1335203D01*
G01X2130001Y-1315243D01*
G01X2123187Y-1296178D01*
G01X2113157Y-1278591D01*
G01X2100218Y-1263019D01*
G01X2084765Y-1249939D01*
G01X2067270Y-1239750D01*
G01X2048268Y-1232763D01*
G01X2028339Y-1229192D01*
G01X2008093Y-1229146D01*
G01X1988149Y-1232626D01*
G01X1969115Y-1239526D01*
G01X1951574Y-1249636D01*
G01X1936061Y-1262646D01*
G01X1923051Y-1278159D01*
G01X1912941Y-1295700D01*
G01X1906041Y-1314734D01*
G01X1902560Y-1334678D01*
G01X1879274Y-1334678D01*
G01X1879274Y-1333853D01*
G01X1875347Y-1312845D01*
G01X1867626Y-1292916D01*
G01X1856375Y-1274745D01*
G01X1841977Y-1258951D01*
G01X1824922Y-1246072D01*
G01X1805791Y-1236546D01*
G01X1785235Y-1230697D01*
G01X1763954Y-1228725D01*
G01X1742673Y-1230697D01*
G01X1722117Y-1236546D01*
G01X1702986Y-1246072D01*
G01X1685931Y-1258951D01*
G01X1671532Y-1274745D01*
G01X1660282Y-1292916D01*
G01X1652561Y-1312845D01*
G01X1648634Y-1333853D01*
G01X1625274Y-1333853D01*
G01X1621347Y-1312845D01*
G01X1613626Y-1292916D01*
G01X1602375Y-1274745D01*
G01X1587977Y-1258951D01*
G01X1570922Y-1246072D01*
G01X1551791Y-1236546D01*
G01X1531235Y-1230697D01*
G01X1509954Y-1228725D01*
G01X1488673Y-1230697D01*
G01X1468117Y-1236546D01*
G01X1448986Y-1246072D01*
G01X1431931Y-1258951D01*
G01X1417532Y-1274745D01*
G01X1406282Y-1292916D01*
G01X1398561Y-1312845D01*
G01X1394634Y-1333853D01*
G01X1371274Y-1333853D01*
G01X1367347Y-1312845D01*
G01X1359626Y-1292916D01*
G01X1348375Y-1274745D01*
G01X1333977Y-1258951D01*
G01X1316922Y-1246072D01*
G01X1297791Y-1236546D01*
G01X1277235Y-1230697D01*
G01X1255954Y-1228725D01*
G01X1234673Y-1230697D01*
G01X1214117Y-1236546D01*
G01X1194986Y-1246072D01*
G01X1177931Y-1258951D01*
G01X1163532Y-1274745D01*
G01X1152282Y-1292916D01*
G01X1144561Y-1312845D01*
G01X1140634Y-1333853D01*
G01X1117274Y-1333853D01*
G01X1113347Y-1312845D01*
G01X1105626Y-1292916D01*
G01X1094375Y-1274745D01*
G01X1079977Y-1258951D01*
G01X1062922Y-1246072D01*
G01X1043791Y-1236546D01*
G01X1023235Y-1230697D01*
G01X1001954Y-1228725D01*
G01X980673Y-1230697D01*
G01X960117Y-1236546D01*
G01X940986Y-1246072D01*
G01X923931Y-1258951D01*
G01X909532Y-1274745D01*
G01X898282Y-1292916D01*
G01X890561Y-1312845D01*
G01X886634Y-1333853D01*
G01X863274Y-1333853D01*
G01X859347Y-1312845D01*
G01X851626Y-1292916D01*
G01X840375Y-1274745D01*
G01X825977Y-1258951D01*
G01X808922Y-1246072D01*
G01X789791Y-1236546D01*
G01X769235Y-1230697D01*
G01X747954Y-1228725D01*
G01X726673Y-1230697D01*
G01X706117Y-1236546D01*
G01X686986Y-1246072D01*
G01X669931Y-1258951D01*
G01X655532Y-1274745D01*
G01X644282Y-1292916D01*
G01X636561Y-1312845D01*
G01X632634Y-1333853D01*
G01X609274Y-1333853D01*
G01X605347Y-1312845D01*
G01X597626Y-1292916D01*
G01X586375Y-1274745D01*
G01X571977Y-1258951D01*
G01X554922Y-1246072D01*
G01X535791Y-1236546D01*
G01X515235Y-1230697D01*
G01X493954Y-1228725D01*
G01X472673Y-1230697D01*
G01X452117Y-1236546D01*
G01X432986Y-1246072D01*
G01X415931Y-1258951D01*
G01X401532Y-1274745D01*
G01X390282Y-1292916D01*
G01X382561Y-1312845D01*
G01X378634Y-1333853D01*
G01X355274Y-1333853D01*
G01X351347Y-1312845D01*
G01X343626Y-1292916D01*
G01X332375Y-1274745D01*
G01X317977Y-1258951D01*
G01X300922Y-1246072D01*
G01X281791Y-1236546D01*
G01X261235Y-1230697D01*
G01X239954Y-1228725D01*
G01X218673Y-1230697D01*
G01X198117Y-1236546D01*
G01X178986Y-1246072D01*
G01X161931Y-1258951D01*
G01X147532Y-1274745D01*
G01X136282Y-1292916D01*
G01X128561Y-1312845D01*
G01X124634Y-1333853D01*
G01X-47658Y-1333853D01*
G01X-53186Y-1328325D01*
G01X-53186Y-1094214D01*
G01X2538980Y-1094214D01*
G01X2538980Y-1115586D01*
G01X2542907Y-1136594D01*
G01X2550628Y-1156523D01*
G01X2561878Y-1174694D01*
G01X2576277Y-1190488D01*
G01X2593332Y-1203367D01*
G01X2612463Y-1212893D01*
G01X2633019Y-1218742D01*
G01X2654300Y-1220714D01*
G01X2654300Y-1220714D01*
G01X2675581Y-1218742D01*
G01X2696137Y-1212893D01*
G01X2715268Y-1203367D01*
G01X2732323Y-1190488D01*
G01X2746722Y-1174694D01*
G01X2757972Y-1156523D01*
G01X2765693Y-1136594D01*
G01X2769620Y-1115586D01*
G01X2769620Y-1094214D01*
G01X2765693Y-1073206D01*
G01X2757972Y-1053277D01*
G01X2746722Y-1035106D01*
G01X2732323Y-1019312D01*
G01X2715268Y-1006433D01*
G01X2696137Y-996907D01*
G01X2675581Y-991058D01*
G01X2654300Y-989086D01*
G01X2633019Y-991058D01*
G01X2612463Y-996907D01*
G01X2593332Y-1006433D01*
G01X2576277Y-1019312D01*
G01X2561878Y-1035106D01*
G01X2550628Y-1053277D01*
G01X2542907Y-1073206D01*
G01X2538980Y-1094214D01*
G01X-53186Y-1094214D01*
G01X-53186Y-1021175D01*
G01X-7525Y-975514D01*
G01X1828800Y-975514D01*
G01X1843200Y-974096D01*
G01X1857047Y-969895D01*
G01X1869809Y-963074D01*
G01X1880994Y-953894D01*
G01X1994675Y-840214D01*
G01X2538980Y-840214D01*
G01X2538980Y-861586D01*
G01X2542907Y-882594D01*
G01X2550628Y-902523D01*
G01X2561878Y-920694D01*
G01X2576277Y-936488D01*
G01X2593332Y-949367D01*
G01X2612463Y-958893D01*
G01X2633019Y-964742D01*
G01X2654300Y-966714D01*
G01X2654300Y-966714D01*
G01X2675581Y-964742D01*
G01X2696137Y-958893D01*
G01X2715268Y-949367D01*
G01X2732323Y-936488D01*
G01X2746722Y-920694D01*
G01X2757972Y-902523D01*
G01X2765693Y-882594D01*
G01X2769620Y-861586D01*
G01X2769620Y-840214D01*
G01X2765693Y-819206D01*
G01X2757972Y-799277D01*
G01X2746722Y-781106D01*
G01X2732323Y-765312D01*
G01X2715268Y-752433D01*
G01X2696137Y-742907D01*
G01X2675581Y-737058D01*
G01X2654300Y-735086D01*
G01X2633019Y-737058D01*
G01X2612463Y-742907D01*
G01X2593332Y-752433D01*
G01X2576277Y-765312D01*
G01X2561878Y-781106D01*
G01X2550628Y-799277D01*
G01X2542907Y-819206D01*
G01X2538980Y-840214D01*
G01X1994675Y-840214D01*
G01X2070148Y-764741D01*
G01X2079328Y-753555D01*
G01X2086149Y-740794D01*
G01X2090350Y-726947D01*
G01X2091768Y-712546D01*
G01X2091768Y-671782D01*
G01X2106181Y-657564D01*
G01X2117898Y-641053D01*
G01X2126561Y-622754D01*
G01X2131905Y-603226D01*
G01X2133476Y-586214D01*
G01X2538980Y-586214D01*
G01X2538980Y-607586D01*
G01X2542907Y-628594D01*
G01X2550628Y-648523D01*
G01X2561878Y-666694D01*
G01X2576277Y-682488D01*
G01X2593332Y-695367D01*
G01X2612463Y-704893D01*
G01X2633019Y-710742D01*
G01X2654300Y-712714D01*
G01X2654300Y-712714D01*
G01X2675581Y-710742D01*
G01X2696137Y-704893D01*
G01X2715268Y-695367D01*
G01X2732323Y-682488D01*
G01X2746722Y-666694D01*
G01X2757972Y-648523D01*
G01X2765693Y-628594D01*
G01X2769620Y-607586D01*
G01X2769620Y-586214D01*
G01X2765693Y-565206D01*
G01X2757972Y-545277D01*
G01X2746722Y-527106D01*
G01X2732323Y-511312D01*
G01X2715268Y-498433D01*
G01X2696137Y-488907D01*
G01X2675581Y-483058D01*
G01X2654300Y-481086D01*
G01X2633019Y-483058D01*
G01X2612463Y-488907D01*
G01X2593332Y-498433D01*
G01X2576277Y-511312D01*
G01X2561878Y-527106D01*
G01X2550628Y-545277D01*
G01X2542907Y-565206D01*
G01X2538980Y-586214D01*
G01X2133476Y-586214D01*
G01X2133766Y-583066D01*
G01X2132089Y-562889D01*
G01X2126923Y-543313D01*
G01X2118427Y-524936D01*
G01X2106860Y-508320D01*
G01X2092577Y-493971D01*
G01X2076013Y-482329D01*
G01X2057674Y-473750D01*
G01X2038122Y-468495D01*
G01X2017954Y-466725D01*
G01X1997785Y-468495D01*
G01X1978233Y-473750D01*
G01X1959895Y-482329D01*
G01X1943331Y-493971D01*
G01X1929047Y-508320D01*
G01X1917481Y-524936D01*
G01X1908985Y-543313D01*
G01X1903819Y-562889D01*
G01X1902141Y-583066D01*
G01X1904003Y-603226D01*
G01X1909346Y-622754D01*
G01X1918009Y-641053D01*
G01X1929726Y-657564D01*
G01X1944140Y-671782D01*
G01X1944140Y-681971D01*
G01X1798225Y-827886D01*
G01X140103Y-827886D01*
G01X275097Y-692892D01*
G01X294729Y-684581D01*
G01X312505Y-672812D01*
G01X327822Y-657984D01*
G01X340162Y-640600D01*
G01X349107Y-621249D01*
G01X354353Y-600585D01*
G01X355723Y-579311D01*
G01X353170Y-558146D01*
G01X346780Y-537807D01*
G01X336771Y-518984D01*
G01X323482Y-502314D01*
G01X307362Y-488363D01*
G01X288958Y-477603D01*
G01X268893Y-470399D01*
G01X247848Y-466994D01*
G01X226535Y-467505D01*
G01X205677Y-471913D01*
G01X185981Y-480070D01*
G01X168113Y-491699D01*
G01X152680Y-506406D01*
G01X140204Y-523693D01*
G01X131108Y-542974D01*
G01X125700Y-563595D01*
G01X124163Y-584859D01*
G01X126550Y-606043D01*
G01X132780Y-626431D01*
G01X-90294Y-849506D01*
G01X-90294Y-849506D01*
G01X-179194Y-938406D01*
G01X-188374Y-949591D01*
G01X-195195Y-962353D01*
G01X-199396Y-976200D01*
G01X-200814Y-990600D01*
G01X-200814Y-1358900D01*
G01X-205486Y-1358900D01*
G01X-205486Y9861D01*
G01X-140793Y9861D01*
G01X-140747Y-10385D01*
G01X-137176Y-30314D01*
G01X-130189Y-49316D01*
G01X-120000Y-66811D01*
G01X-106919Y-82265D01*
G01X-91348Y-95204D01*
G01X-73761Y-105234D01*
G01X-54696Y-112047D01*
G01X-34735Y-115437D01*
G01X-14490Y-115299D01*
G01X394093Y-523882D01*
G01X385284Y-542494D01*
G01X379909Y-562371D01*
G01X378140Y-582886D01*
G01X380033Y-603391D01*
G01X385526Y-623236D01*
G01X394447Y-641794D01*
G01X406513Y-658480D01*
G01X421344Y-672764D01*
G01X438470Y-684197D01*
G01X457350Y-692416D01*
G01X477387Y-697162D01*
G01X497947Y-698284D01*
G01X518382Y-695747D01*
G01X518382Y-695747D01*
G01X538044Y-689632D01*
G01X556313Y-680131D01*
G01X572610Y-667545D01*
G01X586421Y-652272D01*
G01X597308Y-634795D01*
G01X604929Y-615666D01*
G01X609041Y-595489D01*
G01X609516Y-574903D01*
G01X606337Y-554559D01*
G01X599606Y-535099D01*
G01X589534Y-517138D01*
G01X576442Y-501246D01*
G01X560741Y-487922D01*
G01X554344Y-476909D01*
G01X546148Y-467159D01*
G01X89899Y-10910D01*
G01X90005Y4669D01*
G01X620542Y4669D01*
G01X623997Y-17631D01*
G01X631379Y-38956D01*
G01X642453Y-58619D01*
G01X656861Y-75988D01*
G01X674140Y-90503D01*
G01X674140Y-493296D01*
G01X659726Y-507514D01*
G01X648009Y-524025D01*
G01X639346Y-542324D01*
G01X634003Y-561852D01*
G01X632141Y-582012D01*
G01X633819Y-602188D01*
G01X638985Y-621764D01*
G01X647481Y-640141D01*
G01X659047Y-656758D01*
G01X673331Y-671107D01*
G01X689895Y-682749D01*
G01X708233Y-691328D01*
G01X727785Y-696583D01*
G01X747954Y-698353D01*
G01X747954Y-698353D01*
G01X768122Y-696583D01*
G01X787674Y-691328D01*
G01X806013Y-682749D01*
G01X822577Y-671107D01*
G01X836860Y-656758D01*
G01X848427Y-640141D01*
G01X856923Y-621764D01*
G01X862089Y-602188D01*
G01X863766Y-582012D01*
G01X862828Y-571853D01*
G01X886634Y-571853D01*
G01X886634Y-593225D01*
G01X890561Y-614233D01*
G01X898282Y-634162D01*
G01X909532Y-652332D01*
G01X923931Y-668126D01*
G01X940986Y-681006D01*
G01X960117Y-690532D01*
G01X980673Y-696381D01*
G01X1001954Y-698353D01*
G01X1001954Y-698353D01*
G01X1023235Y-696381D01*
G01X1043791Y-690532D01*
G01X1062922Y-681006D01*
G01X1079977Y-668126D01*
G01X1094375Y-652332D01*
G01X1105626Y-634162D01*
G01X1113347Y-614233D01*
G01X1117274Y-593225D01*
G01X1117274Y-571853D01*
G01X1117274Y-571853D01*
G01X1140634Y-571853D01*
G01X1140634Y-593225D01*
G01X1144561Y-614233D01*
G01X1152282Y-634162D01*
G01X1163532Y-652332D01*
G01X1177931Y-668126D01*
G01X1194986Y-681006D01*
G01X1214117Y-690532D01*
G01X1234673Y-696381D01*
G01X1255954Y-698353D01*
G01X1255954Y-698353D01*
G01X1277235Y-696381D01*
G01X1297791Y-690532D01*
G01X1316922Y-681006D01*
G01X1333977Y-668126D01*
G01X1348375Y-652332D01*
G01X1359626Y-634162D01*
G01X1367347Y-614233D01*
G01X1371274Y-593225D01*
G01X1371274Y-571853D01*
G01X1371274Y-571853D01*
G01X1394634Y-571853D01*
G01X1394634Y-593225D01*
G01X1398561Y-614233D01*
G01X1406282Y-634162D01*
G01X1417532Y-652332D01*
G01X1431931Y-668126D01*
G01X1448986Y-681006D01*
G01X1468117Y-690532D01*
G01X1488673Y-696381D01*
G01X1509954Y-698353D01*
G01X1509954Y-698353D01*
G01X1531235Y-696381D01*
G01X1551791Y-690532D01*
G01X1570922Y-681006D01*
G01X1587977Y-668126D01*
G01X1602375Y-652332D01*
G01X1613626Y-634162D01*
G01X1621347Y-614233D01*
G01X1625274Y-593225D01*
G01X1625274Y-571853D01*
G01X1625274Y-571853D01*
G01X1648634Y-571853D01*
G01X1648634Y-593225D01*
G01X1652561Y-614233D01*
G01X1660282Y-634162D01*
G01X1671532Y-652332D01*
G01X1685931Y-668126D01*
G01X1702986Y-681006D01*
G01X1722117Y-690532D01*
G01X1742673Y-696381D01*
G01X1763954Y-698353D01*
G01X1763954Y-698353D01*
G01X1785235Y-696381D01*
G01X1805791Y-690532D01*
G01X1824922Y-681006D01*
G01X1841977Y-668126D01*
G01X1856375Y-652332D01*
G01X1867626Y-634162D01*
G01X1875347Y-614233D01*
G01X1879274Y-593225D01*
G01X1879274Y-571853D01*
G01X1875347Y-550845D01*
G01X1867626Y-530916D01*
G01X1856375Y-512745D01*
G01X1841977Y-496951D01*
G01X1824922Y-484072D01*
G01X1805791Y-474546D01*
G01X1785235Y-468697D01*
G01X1763954Y-466725D01*
G01X1742673Y-468697D01*
G01X1722117Y-474546D01*
G01X1702986Y-484072D01*
G01X1685931Y-496951D01*
G01X1671532Y-512745D01*
G01X1660282Y-530916D01*
G01X1652561Y-550845D01*
G01X1648634Y-571853D01*
G01X1625274Y-571853D01*
G01X1621347Y-550845D01*
G01X1613626Y-530916D01*
G01X1602375Y-512745D01*
G01X1587977Y-496951D01*
G01X1570922Y-484072D01*
G01X1551791Y-474546D01*
G01X1531235Y-468697D01*
G01X1509954Y-466725D01*
G01X1488673Y-468697D01*
G01X1468117Y-474546D01*
G01X1448986Y-484072D01*
G01X1431931Y-496951D01*
G01X1417532Y-512745D01*
G01X1406282Y-530916D01*
G01X1398561Y-550845D01*
G01X1394634Y-571853D01*
G01X1371274Y-571853D01*
G01X1367347Y-550845D01*
G01X1359626Y-530916D01*
G01X1348375Y-512745D01*
G01X1333977Y-496951D01*
G01X1316922Y-484072D01*
G01X1297791Y-474546D01*
G01X1277235Y-468697D01*
G01X1255954Y-466725D01*
G01X1234673Y-468697D01*
G01X1214117Y-474546D01*
G01X1194986Y-484072D01*
G01X1177931Y-496951D01*
G01X1163532Y-512745D01*
G01X1152282Y-530916D01*
G01X1144561Y-550845D01*
G01X1140634Y-571853D01*
G01X1117274Y-571853D01*
G01X1113347Y-550845D01*
G01X1105626Y-530916D01*
G01X1094375Y-512745D01*
G01X1079977Y-496951D01*
G01X1062922Y-484072D01*
G01X1043791Y-474546D01*
G01X1023235Y-468697D01*
G01X1001954Y-466725D01*
G01X980673Y-468697D01*
G01X960117Y-474546D01*
G01X940986Y-484072D01*
G01X923931Y-496951D01*
G01X909532Y-512745D01*
G01X898282Y-530916D01*
G01X890561Y-550845D01*
G01X886634Y-571853D01*
G01X862828Y-571853D01*
G01X861905Y-561852D01*
G01X856561Y-542324D01*
G01X847898Y-524025D01*
G01X836181Y-507514D01*
G01X821768Y-493296D01*
G01X821768Y-332214D01*
G01X2538980Y-332214D01*
G01X2538980Y-353586D01*
G01X2542907Y-374594D01*
G01X2550628Y-394523D01*
G01X2561878Y-412694D01*
G01X2576277Y-428488D01*
G01X2593332Y-441367D01*
G01X2612463Y-450893D01*
G01X2633019Y-456742D01*
G01X2654300Y-458714D01*
G01X2654300Y-458714D01*
G01X2675581Y-456742D01*
G01X2696137Y-450893D01*
G01X2715268Y-441367D01*
G01X2732323Y-428488D01*
G01X2746722Y-412694D01*
G01X2757972Y-394523D01*
G01X2765693Y-374594D01*
G01X2769620Y-353586D01*
G01X2769620Y-332214D01*
G01X2765693Y-311206D01*
G01X2757972Y-291277D01*
G01X2746722Y-273106D01*
G01X2732323Y-257312D01*
G01X2715268Y-244433D01*
G01X2696137Y-234907D01*
G01X2675581Y-229058D01*
G01X2654300Y-227086D01*
G01X2633019Y-229058D01*
G01X2612463Y-234907D01*
G01X2593332Y-244433D01*
G01X2576277Y-257312D01*
G01X2561878Y-273106D01*
G01X2550628Y-291277D01*
G01X2542907Y-311206D01*
G01X2538980Y-332214D01*
G01X821768Y-332214D01*
G01X821768Y-87816D01*
G01X838507Y-72681D01*
G01X852273Y-54800D01*
G01X862624Y-34747D01*
G01X869226Y-13167D01*
G01X871866Y9244D01*
G01X871650Y12700D01*
G01X1490287Y12700D01*
G01X1492198Y-9147D01*
G01X1497874Y-30331D01*
G01X1507142Y-50207D01*
G01X1519721Y-68172D01*
G01X1535229Y-83679D01*
G01X1553193Y-96258D01*
G01X1573070Y-105526D01*
G01X1594253Y-111202D01*
G01X1616100Y-113114D01*
G01X1637948Y-111202D01*
G01X1659131Y-105526D01*
G01X1679007Y-96258D01*
G01X1696972Y-83679D01*
G01X1704451Y-76200D01*
G01X2538486Y-76200D01*
G01X2540458Y-97481D01*
G01X2546307Y-118037D01*
G01X2555833Y-137168D01*
G01X2568712Y-154223D01*
G01X2584506Y-168622D01*
G01X2602677Y-179872D01*
G01X2622606Y-187593D01*
G01X2643614Y-191520D01*
G01X2664986Y-191520D01*
G01X2685994Y-187593D01*
G01X2705923Y-179872D01*
G01X2724094Y-168622D01*
G01X2739888Y-154223D01*
G01X2752767Y-137168D01*
G01X2762293Y-118037D01*
G01X2768142Y-97481D01*
G01X2770114Y-76200D01*
G01X2768142Y-54919D01*
G01X2762293Y-34363D01*
G01X2752767Y-15232D01*
G01X2739888Y1823D01*
G01X2724094Y16222D01*
G01X2705923Y27472D01*
G01X2685994Y35193D01*
G01X2664986Y39120D01*
G01X2643614Y39120D01*
G01X2622606Y35193D01*
G01X2602677Y27472D01*
G01X2584506Y16222D01*
G01X2568712Y1823D01*
G01X2555833Y-15232D01*
G01X2546307Y-34363D01*
G01X2540458Y-54919D01*
G01X2538486Y-76200D01*
G01X2538486Y-76200D01*
G01X1704451Y-76200D01*
G01X1712479Y-68172D01*
G01X1725058Y-50207D01*
G01X1734327Y-30331D01*
G01X1740003Y-9147D01*
G01X1741914Y12700D01*
G01X1740003Y34547D01*
G01X1734327Y55731D01*
G01X1725058Y75607D01*
G01X1712479Y93572D01*
G01X1696972Y109079D01*
G01X1679007Y121658D01*
G01X1659131Y130926D01*
G01X1637948Y136602D01*
G01X1616100Y138514D01*
G01X1594253Y136602D01*
G01X1573070Y130926D01*
G01X1553193Y121658D01*
G01X1535229Y109079D01*
G01X1519721Y93572D01*
G01X1507142Y75607D01*
G01X1497874Y55731D01*
G01X1492198Y34547D01*
G01X1490287Y12700D01*
G01X1490287Y12700D01*
G01X871650Y12700D01*
G01X870460Y31767D01*
G01X865053Y53677D01*
G01X855820Y74268D01*
G01X843056Y92878D01*
G01X827173Y108909D01*
G01X808682Y121845D01*
G01X788177Y131269D01*
G01X766319Y136879D01*
G01X743810Y138493D01*
G01X721374Y136060D01*
G01X699735Y129659D01*
G01X679587Y119495D01*
G01X661578Y105895D01*
G01X646289Y89297D01*
G01X634211Y70234D01*
G01X625733Y49320D01*
G01X621127Y27229D01*
G01X620542Y4669D01*
G01X90005Y4669D01*
G01X90037Y9335D01*
G01X86647Y29296D01*
G01X79834Y48361D01*
G01X69804Y65948D01*
G01X56865Y81519D01*
G01X41411Y94600D01*
G01X23916Y104789D01*
G01X4914Y111776D01*
G01X-15015Y115347D01*
G01X-35261Y115393D01*
G01X-55205Y111913D01*
G01X-74239Y105013D01*
G01X-91780Y94903D01*
G01X-107293Y81893D01*
G01X-120303Y66380D01*
G01X-130413Y48839D01*
G01X-137313Y29805D01*
G01X-140793Y9861D01*
G01X-205486Y9861D01*
G01X-205486Y370586D01*
G01X2796286Y370586D01*
G37*
G54D10*
G01X2796286Y370586D02*
G01X2796286Y-1856486D01*
G01X-205486Y-1856486D01*
G01X-205486Y370586D01*
G01X2796286Y370586D01*
G01X-90294Y-849506D02*
G01X-179194Y-938406D01*
G03X-200814Y-990600I52194J-52194D01*
G01X-200814Y-1358900D01*
G03X-179194Y-1411094I73814J0D01*
G01X126001Y-1716290D01*
G03X196980Y-1834198I115299J-10910D01*
G03X330543Y-1801014I44320J106998D01*
G01X406057Y-1801014D01*
G03X584543Y-1801014I89243J73814D01*
G01X660057Y-1801014D01*
G03X838543Y-1801014I89243J73814D01*
G01X914057Y-1801014D01*
G03X1092543Y-1801014I89243J73814D01*
G01X1168057Y-1801014D01*
G03X1346543Y-1801014I89243J73814D01*
G01X1422057Y-1801014D01*
G03X1600543Y-1801014I89243J73814D01*
G01X1676057Y-1801014D01*
G03X1881114Y-1727200I89243J73814D01*
G03X1676057Y-1653386I-115814J0D01*
G01X1600543Y-1653386D01*
G03X1422057Y-1653386I-89243J-73814D01*
G01X1346543Y-1653386D01*
G03X1168057Y-1653386I-89243J-73814D01*
G01X1092543Y-1653386D01*
G03X914057Y-1653386I-89243J-73814D01*
G01X838543Y-1653386D01*
G03X660057Y-1653386I-89243J-73814D01*
G01X584543Y-1653386D01*
G03X406057Y-1653386I-89243J-73814D01*
G01X330543Y-1653386D01*
G03X230390Y-1611901I-89243J-73814D01*
G01X-53186Y-1328325D01*
G01X-53186Y-1021175D01*
G01X-7525Y-975514D01*
G01X1828800Y-975514D01*
G03X1880994Y-953894I0J73814D01*
G01X2070148Y-764741D01*
G03X2091768Y-712546I-52194J52194D01*
G01X2091768Y-671782D01*
G03X2017954Y-466725I-73814J89243D01*
G03X1944140Y-671782I0J-115814D01*
G01X1944140Y-681971D01*
G01X1798225Y-827886D01*
G01X140103Y-827886D01*
G01X275097Y-692892D01*
G03X288958Y-477603I-35143J110353D01*
G03X132780Y-626431I-49004J-104936D01*
G01X-90294Y-849506D01*
G01X518382Y-695747D02*
G03X560741Y-487922I-24428J113208D01*
G03X546148Y-467159I-66788J-31431D01*
G01X89899Y-10910D01*
G03X-107293Y81893I-115299J10910D01*
G03X-14490Y-115299I81893J-81893D01*
G01X394093Y-523882D01*
G03X518382Y-695747I99861J-58657D01*
G01X239954Y-1460353D02*
G03X239954Y-1228725I0J115814D01*
G03X239954Y-1460353I0J-115814D01*
G01X493954Y-1460353D02*
G03X493954Y-1228725I0J115814D01*
G03X493954Y-1460353I0J-115814D01*
G01X747954Y-698353D02*
G03X821768Y-493296I0J115814D01*
G01X821768Y-87816D01*
G03X743810Y138493I-75668J100516D01*
G03X674140Y-90503I2290J-125793D01*
G01X674140Y-493296D01*
G03X747954Y-698353I73814J-89243D01*
G01X747954Y-1460353D02*
G03X747954Y-1228725I0J115814D01*
G03X747954Y-1460353I0J-115814D01*
G01X1001954Y-698353D02*
G03X1001954Y-466725I0J115814D01*
G03X1001954Y-698353I0J-115814D01*
G01X1001954Y-1460353D02*
G03X1001954Y-1228725I0J115814D01*
G03X1001954Y-1460353I0J-115814D01*
G01X1255954Y-698353D02*
G03X1255954Y-466725I0J115814D01*
G03X1255954Y-698353I0J-115814D01*
G01X1255954Y-1460353D02*
G03X1255954Y-1228725I0J115814D01*
G03X1255954Y-1460353I0J-115814D01*
G01X1509954Y-698353D02*
G03X1509954Y-466725I0J115814D01*
G03X1509954Y-698353I0J-115814D01*
G01X1509954Y-1460353D02*
G03X1509954Y-1228725I0J115814D01*
G03X1509954Y-1460353I0J-115814D01*
G01X1490287Y12700D02*
G03X1741914Y12700I125814J0D01*
G03X1490287Y12700I-125814J0D01*
G01X1763954Y-698353D02*
G03X1763954Y-466725I0J115814D01*
G03X1763954Y-698353I0J-115814D01*
G01X1763954Y-1460353D02*
G03X1763954Y-1228725I0J115814D01*
G03X1763954Y-1460353I0J-115814D01*
G01X2174086Y-1605060D02*
G01X2174086Y-1650657D01*
G03X2247900Y-1855714I73814J-89243D01*
G03X2321714Y-1650657I0J115814D01*
G01X2321714Y-1574485D01*
G03X2300094Y-1522291I-73814J0D01*
G01X2133253Y-1355449D01*
G03X1936061Y-1262646I-115299J10910D01*
G03X2028864Y-1459838I81893J-81893D01*
G01X2174086Y-1605060D01*
G01X2538486Y-76200D02*
G03X2770114Y-76200I115814J0D01*
G03X2538486Y-76200I-115814J0D01*
G01X2654300Y-458714D02*
G03X2654300Y-227086I0J115814D01*
G03X2654300Y-458714I0J-115814D01*
G01X2654300Y-712714D02*
G03X2654300Y-481086I0J115814D01*
G03X2654300Y-712714I0J-115814D01*
G01X2654300Y-1220714D02*
G03X2654300Y-989086I0J115814D01*
G03X2654300Y-1220714I0J-115814D01*
G01X2654300Y-1728714D02*
G03X2654300Y-1497086I0J115814D01*
G03X2654300Y-1728714I0J-115814D01*
G01X2654300Y-1474714D02*
G03X2654300Y-1243086I0J115814D01*
G03X2654300Y-1474714I0J-115814D01*
G01X2654300Y-966714D02*
G03X2654300Y-735086I0J115814D01*
G03X2654300Y-966714I0J-115814D01*
G54D11*
G01X1001954Y-662285D02*
G01X1001954Y-688193D01*
G01X1001954Y-502793D02*
G01X1001954Y-476885D01*
G01X922208Y-582539D02*
G01X896300Y-582539D01*
G01X1081700Y-582539D02*
G01X1107608Y-582539D01*
G01X1526355Y12700D02*
G01X1500447Y12700D01*
G01X1705846Y12700D02*
G01X1731754Y12700D01*
G01X1616100Y102446D02*
G01X1616100Y128354D01*
G01X1616100Y-77046D02*
G01X1616100Y-102954D01*
G01X2574554Y-76200D02*
G01X2548646Y-76200D01*
G01X2734046Y-76200D02*
G01X2759954Y-76200D01*
G01X2654300Y3546D02*
G01X2654300Y29454D01*
G01X2654300Y-155946D02*
G01X2654300Y-181854D01*
G01X2654300Y-422646D02*
G01X2654300Y-448554D01*
G01X2654300Y-263154D02*
G01X2654300Y-237246D01*
G01X2574554Y-342900D02*
G01X2548646Y-342900D01*
G01X2734046Y-342900D02*
G01X2759954Y-342900D01*
G01X2654300Y-676646D02*
G01X2654300Y-702554D01*
G01X2654300Y-517154D02*
G01X2654300Y-491246D01*
G01X2574554Y-596900D02*
G01X2548646Y-596900D01*
G01X2734046Y-596900D02*
G01X2759954Y-596900D01*
G01X2654300Y-930646D02*
G01X2654300Y-956554D01*
G01X2654300Y-771154D02*
G01X2654300Y-745246D01*
G01X2574554Y-850900D02*
G01X2548646Y-850900D01*
G01X2734046Y-850900D02*
G01X2759954Y-850900D01*
G01X2654300Y-1184646D02*
G01X2654300Y-1210554D01*
G01X2654300Y-1025154D02*
G01X2654300Y-999246D01*
G01X2574554Y-1104900D02*
G01X2548646Y-1104900D01*
G01X2734046Y-1104900D02*
G01X2759954Y-1104900D01*
G01X2654300Y-1438646D02*
G01X2654300Y-1464554D01*
G01X2654300Y-1279154D02*
G01X2654300Y-1253246D01*
G01X2574554Y-1358900D02*
G01X2548646Y-1358900D01*
G01X2734046Y-1358900D02*
G01X2759954Y-1358900D01*
G01X2654300Y-1692646D02*
G01X2654300Y-1718554D01*
G01X2654300Y-1533154D02*
G01X2654300Y-1507246D01*
G01X2574554Y-1612900D02*
G01X2548646Y-1612900D01*
G01X2734046Y-1612900D02*
G01X2759954Y-1612900D01*
G04 Copper End*

G04 Pad Start*
G54D12*
G01X2247900Y-1739900D03*
G01X241300Y-1727200D03*
G01X1511300Y-1727200D03*
G01X1257300Y-1727200D03*
G01X1003300Y-1727200D03*
G01X749300Y-1727200D03*
G01X495300Y-1727200D03*
G01X2654300Y-1612900D03*
G01X2654300Y-1358900D03*
G01X2654300Y-1104900D03*
G01X2654300Y-850900D03*
G01X2654300Y-596900D03*
G01X2654300Y-342900D03*
G01X-25400Y0D03*
G01X1765300Y-1727200D03*
G01X2654300Y-76200D03*
G54D13*
G01X746100Y12700D03*
G01X1616100Y12700D03*
G54D12*
G01X239954Y-1344539D03*
G01X493954Y-1344539D03*
G01X747954Y-1344539D03*
G01X1001954Y-1344539D03*
G01X1255954Y-1344539D03*
G01X1509954Y-1344539D03*
G01X1763954Y-1344539D03*
G01X2017954Y-1344539D03*
G01X2017954Y-582539D03*
G01X1763954Y-582539D03*
G01X1509954Y-582539D03*
G01X1255954Y-582539D03*
G01X1001954Y-582539D03*
G01X747954Y-582539D03*
G01X493954Y-582539D03*
G01X239954Y-582539D03*
G04 Pad End*

G04 Track Start*
G54D14*
G01X241300Y-1727200D02*
G01X495300Y-1727200D01*
G01X749300Y-1727200D01*
G01X1003300Y-1727200D01*
G01X1257300Y-1727200D01*
G01X1511300Y-1727200D01*
G01X493954Y-582539D02*
G01X493954Y-519354D01*
G01X-25400Y0D01*
G01X241300Y-1727200D02*
G01X-127000Y-1358900D01*
G01X239954Y-582539D02*
G01X239954Y-623646D01*
G01X-127000Y-1358900D02*
G01X-127000Y-990600D01*
G01X239954Y-623646D02*
G01X-38100Y-901700D01*
G01X-127000Y-990600D02*
G01X-38100Y-901700D01*
G01X2247900Y-1739900D02*
G01X2247900Y-1574485D01*
G01X2017954Y-1344539D01*
G01X1765300Y-1727200D02*
G01X1511300Y-1727200D01*
G01X-38100Y-901700D02*
G01X1828800Y-901700D01*
G01X2017954Y-712546D01*
G01X2017954Y-582539D01*
G01X747954Y10846D02*
G01X746100Y12700D01*
G01X747954Y-582539D02*
G01X747954Y10846D01*
G04 Track End*

M02*

